<svg xmlns="http://www.w3.org/2000/svg" xmlns:xlink="http://www.w3.org/1999/xlink" id="body_2" preserveAspectRatio="xMinYMin meet" viewBox="0 0 793 1123"><defs><clipPath id="1"><path id="" clip-rule="evenodd" d="M0 842L0 0L0 0L595 0L595 0L595 842L595 842L0 842z" /></clipPath><clipPath id="2"><path id="" clip-rule="evenodd" d="M0 0L594.24 0L594.24 0L594.24 841.6599L594.24 841.6599L0 841.6599L0 841.6599L0 0z" /></clipPath><clipPath id="3"><path id="" clip-rule="evenodd" d="M0 0L594.24 0L594.24 0L594.24 841.6599L594.24 841.6599L0 841.6599L0 841.6599L0 0z" /></clipPath><clipPath id="4"><path id="" clip-rule="evenodd" d="M241.4775 48.07941L303.6026 48.07941L303.6026 48.07941L303.6026 65.36639L303.6026 65.36639L241.4775 65.36639L241.4775 65.36639L241.4775 48.07941z" /></clipPath><clipPath id="5"><path id="" clip-rule="evenodd" d="M0 0L594.24 0L594.24 0L594.24 841.6599L594.24 841.6599L0 841.6599L0 841.6599L0 0z" /></clipPath><clipPath id="6"><path id="" clip-rule="evenodd" d="M0 0L594.24 0L594.24 0L594.24 841.6599L594.24 841.6599L0 841.6599L0 841.6599L0 0z" /></clipPath><clipPath id="7"><path id="" clip-rule="evenodd" d="M241.4775 48.07941L303.6026 48.07941L303.6026 48.07941L303.6026 65.36639L303.6026 65.36639L241.4775 65.36639L241.4775 65.36639L241.4775 48.07941z" /></clipPath><clipPath id="8"><path id="" clip-rule="evenodd" d="M0 0L594.24 0L594.24 0L594.24 841.6599L594.24 841.6599L0 841.6599L0 841.6599L0 0z" /></clipPath><clipPath id="9"><path id="" clip-rule="evenodd" d="M0 0L594.24 0L594.24 0L594.24 841.6599L594.24 841.6599L0 841.6599L0 841.6599L0 0z" /></clipPath><clipPath id="10"><path id="" clip-rule="evenodd" d="M241.4775 48.07941L303.6026 48.07941L303.6026 48.07941L303.6026 65.36639L303.6026 65.36639L241.4775 65.36639L241.4775 65.36639L241.4775 48.07941z" /></clipPath><clipPath id="11"><path id="" clip-rule="evenodd" d="M0 0L594.24 0L594.24 0L594.24 841.6599L594.24 841.6599L0 841.6599L0 841.6599L0 0z" /></clipPath><clipPath id="12"><path id="" clip-rule="evenodd" d="M0 0L594.24 0L594.24 0L594.24 841.6599L594.24 841.6599L0 841.6599L0 841.6599L0 0z" /></clipPath><clipPath id="13"><path id="" clip-rule="evenodd" d="M241.4775 48.07941L303.6026 48.07941L303.6026 48.07941L303.6026 65.36639L303.6026 65.36639L241.4775 65.36639L241.4775 65.36639L241.4775 48.07941z" /></clipPath><clipPath id="14"><path id="" clip-rule="evenodd" d="M0 0L594.24 0L594.24 0L594.24 841.6599L594.24 841.6599L0 841.6599L0 841.6599L0 0z" /></clipPath></defs><g transform="matrix(1.333333 0 0 1.333333 0 0)"><g clip-path="url(#1)"><g clip-path="url(#2)"><path id="1" transform="matrix(1 0 0 -1 0 842)" d="M0 841.9999L594.2399 841.9999L594.2399 2.500854L0 2.500854z" stroke="none" fill="#FFFFFF" fill-rule="nonzero" /><path id="2" transform="matrix(1 0 0 -1 0 842)" d="M0 841.9999L594.2399 841.9999L594.2399 2.500854L0 2.500854z" stroke="none" fill="#31D6F4" fill-rule="nonzero" /><path id="3" transform="matrix(1 0 0 -1 0 842)" d="M0 1683.66L594.2399 1683.66L594.2399 2.500854L0 2.500854z" stroke="none" fill="#31D6F4" fill-rule="nonzero" /><path id="4" transform="matrix(1 0 0 -1 0 842)" d="M0 1683.66L594.2399 1683.66L594.2399 2.500854L0 2.500854z" stroke="none" fill="#FFFFFF" fill-rule="nonzero" /><path id="5" transform="matrix(1 0 0 -1 0 842)" d="M0 1683.66L194.4785 1683.66L194.4785 695.6008L0 695.6008z" stroke="none" fill="#00B0F0" fill-rule="nonzero" /><path id="6" transform="matrix(1 0 0 -1 0 842)" d="M229.0525 797.1619L229.5927 797.1619C 236.1531 797.1619 241.4775 791.8375 241.4775 785.2771L241.4775 785.2771L241.4775 784.7369C 241.4775 778.1765 236.1531 772.8521 229.5927 772.8521L229.5927 772.8521L229.0525 772.8521C 222.4921 772.8521 217.1677 778.1765 217.1677 784.7369L217.1677 784.7369L217.1677 785.2771C 217.1677 791.8375 222.4921 797.1619 229.0525 797.1619z" stroke="none" fill="#00B0F0" fill-rule="evenodd" /></g><g clip-path="url(#3)"><g clip-path="url(#4)"></g></g><g clip-path="url(#5)"></g><g clip-path="url(#6)"><g clip-path="url(#7)"></g></g><g clip-path="url(#8)"></g><g clip-path="url(#9)"><g clip-path="url(#10)"></g></g><g clip-path="url(#11)"></g><g clip-path="url(#12)"><g clip-path="url(#13)"></g></g><g clip-path="url(#14)"><path id="19" transform="matrix(1 0 0 -1 0 842)" d="M244.7188 762.3177L313.8667 762.3177" stroke="#333333" stroke-width="0.5402181" stroke-linecap="square" fill="none" /><path id="20" transform="matrix(1 0 0 -1 0 842)" d="M244.7188 760.4269L296.5797 760.4269L296.5797 748.5421L244.7188 748.5421z" stroke="none" fill="#FFFFFF" fill-rule="nonzero" /><path id="27" transform="matrix(1 0 0 -1 0 842)" d="M244.7188 750.4329L296.5797 750.4329" stroke="#333333" stroke-width="0.5402181" stroke-linecap="square" fill="none" /><path id="28" transform="matrix(1 0 0 -1 0 842)" d="M244.7188 748.5421L270.6493 748.5421L270.6493 736.6573L244.7188 736.6573z" stroke="none" fill="#FFFFFF" fill-rule="nonzero" /><path id="32" transform="matrix(1 0 0 -1 0 842)" d="M244.7188 738.5481L270.6493 738.5481" stroke="#333333" stroke-width="0.5402181" stroke-linecap="square" fill="none" /><path id="33" transform="matrix(1 0 0 -1 0 842)" d="M244.7188 736.6573L294.4189 736.6573L294.4189 724.7725L244.7188 724.7725z" stroke="none" fill="#FFFFFF" fill-rule="nonzero" /><path id="41" transform="matrix(1 0 0 -1 0 842)" d="M244.7188 726.6633L294.4189 726.6633" stroke="#333333" stroke-width="0.5402181" stroke-linecap="square" fill="none" /></g></g></g></svg>