<svg xmlns="http://www.w3.org/2000/svg" xmlns:xlink="http://www.w3.org/1999/xlink" id="body_1" preserveAspectRatio="xMinYMin meet" viewBox="0 0 793 1123"><defs><clipPath id="1"><path id="" clip-rule="evenodd" d="M0 842L0 0L0 0L595 0L595 0L595 842L595 842L0 842z" /></clipPath><clipPath id="2"><path id="" clip-rule="evenodd" d="M0 0L594.24 0L594.24 0L594.24 841.6599L594.24 841.6599L0 841.6599L0 841.6599L0 0z" /></clipPath><clipPath id="3"><path id="" clip-rule="evenodd" d="M0 0L594.24 0L594.24 0L594.24 841.6599L594.24 841.6599L0 841.6599L0 841.6599L0 0z" /></clipPath><clipPath id="4"><path id="" clip-rule="evenodd" d="M49.70007 358.1647L133.4339 358.1647L133.4339 358.1647L133.4339 375.4516L133.4339 375.4516L49.70007 375.4516L49.70007 375.4516L49.70007 358.1647z" /></clipPath><clipPath id="5"><path id="" clip-rule="evenodd" d="M0 0L594.24 0L594.24 0L594.24 841.6599L594.24 841.6599L0 841.6599L0 841.6599L0 0z" /></clipPath><clipPath id="6"><path id="" clip-rule="evenodd" d="M0 0L594.24 0L594.24 0L594.24 841.6599L594.24 841.6599L0 841.6599L0 841.6599L0 0z" /></clipPath><clipPath id="7"><path id="" clip-rule="evenodd" d="M49.70007 358.1647L133.4339 358.1647L133.4339 358.1647L133.4339 375.4516L133.4339 375.4516L49.70007 375.4516L49.70007 375.4516L49.70007 358.1647z" /></clipPath><clipPath id="8"><path id="" clip-rule="evenodd" d="M0 0L594.24 0L594.24 0L594.24 841.6599L594.24 841.6599L0 841.6599L0 841.6599L0 0z" /></clipPath><clipPath id="9"><path id="" clip-rule="evenodd" d="M0 0L594.24 0L594.24 0L594.24 841.6599L594.24 841.6599L0 841.6599L0 841.6599L0 0z" /></clipPath><clipPath id="10"><path id="" clip-rule="evenodd" d="M49.70007 358.1647L133.4339 358.1647L133.4339 358.1647L133.4339 375.4516L133.4339 375.4516L49.70007 375.4516L49.70007 375.4516L49.70007 358.1647z" /></clipPath><clipPath id="11"><path id="" clip-rule="evenodd" d="M0 0L594.24 0L594.24 0L594.24 841.6599L594.24 841.6599L0 841.6599L0 841.6599L0 0z" /></clipPath><clipPath id="12"><path id="" clip-rule="evenodd" d="M0 0L594.24 0L594.24 0L594.24 841.6599L594.24 841.6599L0 841.6599L0 841.6599L0 0z" /></clipPath><clipPath id="13"><path id="" clip-rule="evenodd" d="M49.70007 358.1647L133.4339 358.1647L133.4339 358.1647L133.4339 375.4516L133.4339 375.4516L49.70007 375.4516L49.70007 375.4516L49.70007 358.1647z" /></clipPath><clipPath id="14"><path id="" clip-rule="evenodd" d="M0 0L594.24 0L594.24 0L594.24 841.6599L594.24 841.6599L0 841.6599L0 841.6599L0 0z" /></clipPath><clipPath id="15"><path id="" clip-rule="evenodd" d="M0 0L594.24 0L594.24 0L594.24 841.6599L594.24 841.6599L0 841.6599L0 841.6599L0 0z" /></clipPath><clipPath id="16"><path id="" clip-rule="evenodd" d="M49.70007 563.4476L133.4339 563.4476L133.4339 563.4476L133.4339 580.7346L133.4339 580.7346L49.70007 580.7346L49.70007 580.7346L49.70007 563.4476z" /></clipPath><clipPath id="17"><path id="" clip-rule="evenodd" d="M0 0L594.24 0L594.24 0L594.24 841.6599L594.24 841.6599L0 841.6599L0 841.6599L0 0z" /></clipPath><clipPath id="18"><path id="" clip-rule="evenodd" d="M0 0L594.24 0L594.24 0L594.24 841.6599L594.24 841.6599L0 841.6599L0 841.6599L0 0z" /></clipPath><clipPath id="19"><path id="" clip-rule="evenodd" d="M49.70007 563.4476L133.4339 563.4476L133.4339 563.4476L133.4339 580.7346L133.4339 580.7346L49.70007 580.7346L49.70007 580.7346L49.70007 563.4476z" /></clipPath><clipPath id="20"><path id="" clip-rule="evenodd" d="M0 0L594.24 0L594.24 0L594.24 841.6599L594.24 841.6599L0 841.6599L0 841.6599L0 0z" /></clipPath><clipPath id="21"><path id="" clip-rule="evenodd" d="M0 0L594.24 0L594.24 0L594.24 841.6599L594.24 841.6599L0 841.6599L0 841.6599L0 0z" /></clipPath><clipPath id="22"><path id="" clip-rule="evenodd" d="M49.70007 563.4476L133.4339 563.4476L133.4339 563.4476L133.4339 580.7346L133.4339 580.7346L49.70007 580.7346L49.70007 580.7346L49.70007 563.4476z" /></clipPath><clipPath id="23"><path id="" clip-rule="evenodd" d="M0 0L594.24 0L594.24 0L594.24 841.6599L594.24 841.6599L0 841.6599L0 841.6599L0 0z" /></clipPath><clipPath id="24"><path id="" clip-rule="evenodd" d="M0 0L594.24 0L594.24 0L594.24 841.6599L594.24 841.6599L0 841.6599L0 841.6599L0 0z" /></clipPath><clipPath id="25"><path id="" clip-rule="evenodd" d="M49.70007 563.4476L133.4339 563.4476L133.4339 563.4476L133.4339 580.7346L133.4339 580.7346L49.70007 580.7346L49.70007 580.7346L49.70007 563.4476z" /></clipPath><clipPath id="26"><path id="" clip-rule="evenodd" d="M0 0L594.24 0L594.24 0L594.24 841.6599L594.24 841.6599L0 841.6599L0 841.6599L0 0z" /></clipPath><clipPath id="27"><path id="" clip-rule="evenodd" d="M0 0L594.24 0L594.24 0L594.24 841.6599L594.24 841.6599L0 841.6599L0 841.6599L0 0z" /></clipPath><clipPath id="28"><path id="" clip-rule="evenodd" d="M241.4775 31.33264L325.2113 31.33264L325.2113 31.33264L325.2113 48.61963L325.2113 48.61963L241.4775 48.61963L241.4775 48.61963L241.4775 31.33264z" /></clipPath><clipPath id="29"><path id="" clip-rule="evenodd" d="M0 0L594.24 0L594.24 0L594.24 841.6599L594.24 841.6599L0 841.6599L0 841.6599L0 0z" /></clipPath><clipPath id="30"><path id="" clip-rule="evenodd" d="M0 0L594.24 0L594.24 0L594.24 841.6599L594.24 841.6599L0 841.6599L0 841.6599L0 0z" /></clipPath><clipPath id="31"><path id="" clip-rule="evenodd" d="M241.4775 31.33264L325.2113 31.33264L325.2113 31.33264L325.2113 48.61963L325.2113 48.61963L241.4775 48.61963L241.4775 48.61963L241.4775 31.33264z" /></clipPath><clipPath id="32"><path id="" clip-rule="evenodd" d="M0 0L594.24 0L594.24 0L594.24 841.6599L594.24 841.6599L0 841.6599L0 841.6599L0 0z" /></clipPath><clipPath id="33"><path id="" clip-rule="evenodd" d="M0 0L594.24 0L594.24 0L594.24 841.6599L594.24 841.6599L0 841.6599L0 841.6599L0 0z" /></clipPath><clipPath id="34"><path id="" clip-rule="evenodd" d="M241.4775 31.33264L325.2113 31.33264L325.2113 31.33264L325.2113 48.61963L325.2113 48.61963L241.4775 48.61963L241.4775 48.61963L241.4775 31.33264z" /></clipPath><clipPath id="35"><path id="" clip-rule="evenodd" d="M0 0L594.24 0L594.24 0L594.24 841.6599L594.24 841.6599L0 841.6599L0 841.6599L0 0z" /></clipPath><clipPath id="36"><path id="" clip-rule="evenodd" d="M0 0L594.24 0L594.24 0L594.24 841.6599L594.24 841.6599L0 841.6599L0 841.6599L0 0z" /></clipPath><clipPath id="37"><path id="" clip-rule="evenodd" d="M241.4775 31.33264L325.2113 31.33264L325.2113 31.33264L325.2113 48.61963L325.2113 48.61963L241.4775 48.61963L241.4775 48.61963L241.4775 31.33264z" /></clipPath><clipPath id="38"><path id="" clip-rule="evenodd" d="M0 0L594.24 0L594.24 0L594.24 841.6599L594.24 841.6599L0 841.6599L0 841.6599L0 0z" /></clipPath><clipPath id="39"><path id="" clip-rule="evenodd" d="M0 0L594.24 0L594.24 0L594.24 841.6599L594.24 841.6599L0 841.6599L0 841.6599L0 0z" /></clipPath><clipPath id="40"><path id="" clip-rule="evenodd" d="M241.4775 120.4686L325.2113 120.4686L325.2113 120.4686L325.2113 137.7556L325.2113 137.7556L241.4775 137.7556L241.4775 137.7556L241.4775 120.4686z" /></clipPath><clipPath id="41"><path id="" clip-rule="evenodd" d="M0 0L594.24 0L594.24 0L594.24 841.6599L594.24 841.6599L0 841.6599L0 841.6599L0 0z" /></clipPath><clipPath id="42"><path id="" clip-rule="evenodd" d="M0 0L594.24 0L594.24 0L594.24 841.6599L594.24 841.6599L0 841.6599L0 841.6599L0 0z" /></clipPath><clipPath id="43"><path id="" clip-rule="evenodd" d="M241.4775 120.4686L325.2113 120.4686L325.2113 120.4686L325.2113 137.7556L325.2113 137.7556L241.4775 137.7556L241.4775 137.7556L241.4775 120.4686z" /></clipPath><clipPath id="44"><path id="" clip-rule="evenodd" d="M0 0L594.24 0L594.24 0L594.24 841.6599L594.24 841.6599L0 841.6599L0 841.6599L0 0z" /></clipPath><clipPath id="45"><path id="" clip-rule="evenodd" d="M0 0L594.24 0L594.24 0L594.24 841.6599L594.24 841.6599L0 841.6599L0 841.6599L0 0z" /></clipPath><clipPath id="46"><path id="" clip-rule="evenodd" d="M241.4775 120.4686L325.2113 120.4686L325.2113 120.4686L325.2113 137.7556L325.2113 137.7556L241.4775 137.7556L241.4775 137.7556L241.4775 120.4686z" /></clipPath><clipPath id="47"><path id="" clip-rule="evenodd" d="M0 0L594.24 0L594.24 0L594.24 841.6599L594.24 841.6599L0 841.6599L0 841.6599L0 0z" /></clipPath><clipPath id="48"><path id="" clip-rule="evenodd" d="M0 0L594.24 0L594.24 0L594.24 841.6599L594.24 841.6599L0 841.6599L0 841.6599L0 0z" /></clipPath><clipPath id="49"><path id="" clip-rule="evenodd" d="M241.4775 120.4686L325.2113 120.4686L325.2113 120.4686L325.2113 137.7556L325.2113 137.7556L241.4775 137.7556L241.4775 137.7556L241.4775 120.4686z" /></clipPath><clipPath id="50"><path id="" clip-rule="evenodd" d="M0 0L594.24 0L594.24 0L594.24 841.6599L594.24 841.6599L0 841.6599L0 841.6599L0 0z" /></clipPath><clipPath id="51"><path id="" clip-rule="evenodd" d="M0 0L594.24 0L594.24 0L594.24 841.6599L594.24 841.6599L0 841.6599L0 841.6599L0 0z" /></clipPath><clipPath id="52"><path id="" clip-rule="evenodd" d="M245.259 142.6176L334.3951 142.6176L334.3951 142.6176L334.3951 155.5828L334.3951 155.5828L245.259 155.5828L245.259 155.5828L245.259 142.6176z" /></clipPath><clipPath id="53"><path id="" clip-rule="evenodd" d="M0 0L594.24 0L594.24 0L594.24 841.6599L594.24 841.6599L0 841.6599L0 841.6599L0 0z" /></clipPath><clipPath id="54"><path id="" clip-rule="evenodd" d="M0 0L594.24 0L594.24 0L594.24 841.6599L594.24 841.6599L0 841.6599L0 841.6599L0 0z" /></clipPath><clipPath id="55"><path id="" clip-rule="evenodd" d="M245.259 142.6176L334.3951 142.6176L334.3951 142.6176L334.3951 155.5828L334.3951 155.5828L245.259 155.5828L245.259 155.5828L245.259 142.6176z" /></clipPath><clipPath id="56"><path id="" clip-rule="evenodd" d="M0 0L594.24 0L594.24 0L594.24 841.6599L594.24 841.6599L0 841.6599L0 841.6599L0 0z" /></clipPath><clipPath id="57"><path id="" clip-rule="evenodd" d="M0 0L594.24 0L594.24 0L594.24 841.6599L594.24 841.6599L0 841.6599L0 841.6599L0 0z" /></clipPath><clipPath id="58"><path id="" clip-rule="evenodd" d="M245.259 142.6176L334.3951 142.6176L334.3951 142.6176L334.3951 155.5828L334.3951 155.5828L245.259 155.5828L245.259 155.5828L245.259 142.6176z" /></clipPath><clipPath id="59"><path id="" clip-rule="evenodd" d="M0 0L594.24 0L594.24 0L594.24 841.6599L594.24 841.6599L0 841.6599L0 841.6599L0 0z" /></clipPath><clipPath id="60"><path id="" clip-rule="evenodd" d="M0 0L594.24 0L594.24 0L594.24 841.6599L594.24 841.6599L0 841.6599L0 841.6599L0 0z" /></clipPath><clipPath id="61"><path id="" clip-rule="evenodd" d="M245.259 142.6176L334.3951 142.6176L334.3951 142.6176L334.3951 155.5828L334.3951 155.5828L245.259 155.5828L245.259 155.5828L245.259 142.6176z" /></clipPath><clipPath id="62"><path id="" clip-rule="evenodd" d="M0 0L594.24 0L594.24 0L594.24 841.6599L594.24 841.6599L0 841.6599L0 841.6599L0 0z" /></clipPath><clipPath id="63"><path id="" clip-rule="evenodd" d="M0 0L594.24 0L594.24 0L594.24 841.6599L594.24 841.6599L0 841.6599L0 841.6599L0 0z" /></clipPath><clipPath id="64"><path id="" clip-rule="evenodd" d="M336.5559 142.6176L477.5529 142.6176L477.5529 142.6176L477.5529 155.5828L477.5529 155.5828L336.5559 155.5828L336.5559 155.5828L336.5559 142.6176z" /></clipPath><clipPath id="65"><path id="" clip-rule="evenodd" d="M0 0L594.24 0L594.24 0L594.24 841.6599L594.24 841.6599L0 841.6599L0 841.6599L0 0z" /></clipPath><clipPath id="66"><path id="" clip-rule="evenodd" d="M0 0L594.24 0L594.24 0L594.24 841.6599L594.24 841.6599L0 841.6599L0 841.6599L0 0z" /></clipPath><clipPath id="67"><path id="" clip-rule="evenodd" d="M336.5559 142.6176L477.5529 142.6176L477.5529 142.6176L477.5529 155.5828L477.5529 155.5828L336.5559 155.5828L336.5559 155.5828L336.5559 142.6176z" /></clipPath><clipPath id="68"><path id="" clip-rule="evenodd" d="M0 0L594.24 0L594.24 0L594.24 841.6599L594.24 841.6599L0 841.6599L0 841.6599L0 0z" /></clipPath><clipPath id="69"><path id="" clip-rule="evenodd" d="M0 0L594.24 0L594.24 0L594.24 841.6599L594.24 841.6599L0 841.6599L0 841.6599L0 0z" /></clipPath><clipPath id="70"><path id="" clip-rule="evenodd" d="M336.5559 142.6176L477.5529 142.6176L477.5529 142.6176L477.5529 155.5828L477.5529 155.5828L336.5559 155.5828L336.5559 155.5828L336.5559 142.6176z" /></clipPath><clipPath id="71"><path id="" clip-rule="evenodd" d="M0 0L594.24 0L594.24 0L594.24 841.6599L594.24 841.6599L0 841.6599L0 841.6599L0 0z" /></clipPath><clipPath id="72"><path id="" clip-rule="evenodd" d="M0 0L594.24 0L594.24 0L594.24 841.6599L594.24 841.6599L0 841.6599L0 841.6599L0 0z" /></clipPath><clipPath id="73"><path id="" clip-rule="evenodd" d="M336.5559 142.6176L477.5529 142.6176L477.5529 142.6176L477.5529 155.5828L477.5529 155.5828L336.5559 155.5828L336.5559 155.5828L336.5559 142.6176z" /></clipPath><clipPath id="74"><path id="" clip-rule="evenodd" d="M0 0L594.24 0L594.24 0L594.24 841.6599L594.24 841.6599L0 841.6599L0 841.6599L0 0z" /></clipPath><clipPath id="75"><path id="" clip-rule="evenodd" d="M0 0L594.24 0L594.24 0L594.24 841.6599L594.24 841.6599L0 841.6599L0 841.6599L0 0z" /></clipPath><clipPath id="76"><path id="" clip-rule="evenodd" d="M479.7137 142.6176L515.9083 142.6176L515.9083 142.6176L515.9083 155.5828L515.9083 155.5828L479.7137 155.5828L479.7137 155.5828L479.7137 142.6176z" /></clipPath><clipPath id="77"><path id="" clip-rule="evenodd" d="M0 0L594.24 0L594.24 0L594.24 841.6599L594.24 841.6599L0 841.6599L0 841.6599L0 0z" /></clipPath><clipPath id="78"><path id="" clip-rule="evenodd" d="M0 0L594.24 0L594.24 0L594.24 841.6599L594.24 841.6599L0 841.6599L0 841.6599L0 0z" /></clipPath><clipPath id="79"><path id="" clip-rule="evenodd" d="M479.7137 142.6176L515.9083 142.6176L515.9083 142.6176L515.9083 155.5828L515.9083 155.5828L479.7137 155.5828L479.7137 155.5828L479.7137 142.6176z" /></clipPath><clipPath id="80"><path id="" clip-rule="evenodd" d="M0 0L594.24 0L594.24 0L594.24 841.6599L594.24 841.6599L0 841.6599L0 841.6599L0 0z" /></clipPath><clipPath id="81"><path id="" clip-rule="evenodd" d="M0 0L594.24 0L594.24 0L594.24 841.6599L594.24 841.6599L0 841.6599L0 841.6599L0 0z" /></clipPath><clipPath id="82"><path id="" clip-rule="evenodd" d="M479.7137 142.6176L515.9083 142.6176L515.9083 142.6176L515.9083 155.5828L515.9083 155.5828L479.7137 155.5828L479.7137 155.5828L479.7137 142.6176z" /></clipPath><clipPath id="83"><path id="" clip-rule="evenodd" d="M0 0L594.24 0L594.24 0L594.24 841.6599L594.24 841.6599L0 841.6599L0 841.6599L0 0z" /></clipPath><clipPath id="84"><path id="" clip-rule="evenodd" d="M0 0L594.24 0L594.24 0L594.24 841.6599L594.24 841.6599L0 841.6599L0 841.6599L0 0z" /></clipPath><clipPath id="85"><path id="" clip-rule="evenodd" d="M479.7137 142.6176L515.9083 142.6176L515.9083 142.6176L515.9083 155.5828L515.9083 155.5828L479.7137 155.5828L479.7137 155.5828L479.7137 142.6176z" /></clipPath><clipPath id="86"><path id="" clip-rule="evenodd" d="M0 0L594.24 0L594.24 0L594.24 841.6599L594.24 841.6599L0 841.6599L0 841.6599L0 0z" /></clipPath><clipPath id="87"><path id="" clip-rule="evenodd" d="M0 0L594.24 0L594.24 0L594.24 841.6599L594.24 841.6599L0 841.6599L0 841.6599L0 0z" /></clipPath><clipPath id="88"><path id="" clip-rule="evenodd" d="M245.259 232.2938L334.9352 232.2938L334.9352 232.2938L334.9352 245.259L334.9352 245.259L245.259 245.259L245.259 245.259L245.259 232.2938z" /></clipPath><clipPath id="89"><path id="" clip-rule="evenodd" d="M0 0L594.24 0L594.24 0L594.24 841.6599L594.24 841.6599L0 841.6599L0 841.6599L0 0z" /></clipPath><clipPath id="90"><path id="" clip-rule="evenodd" d="M0 0L594.24 0L594.24 0L594.24 841.6599L594.24 841.6599L0 841.6599L0 841.6599L0 0z" /></clipPath><clipPath id="91"><path id="" clip-rule="evenodd" d="M245.259 232.2938L334.9352 232.2938L334.9352 232.2938L334.9352 245.259L334.9352 245.259L245.259 245.259L245.259 245.259L245.259 232.2938z" /></clipPath><clipPath id="92"><path id="" clip-rule="evenodd" d="M0 0L594.24 0L594.24 0L594.24 841.6599L594.24 841.6599L0 841.6599L0 841.6599L0 0z" /></clipPath><clipPath id="93"><path id="" clip-rule="evenodd" d="M0 0L594.24 0L594.24 0L594.24 841.6599L594.24 841.6599L0 841.6599L0 841.6599L0 0z" /></clipPath><clipPath id="94"><path id="" clip-rule="evenodd" d="M245.259 232.2938L334.9352 232.2938L334.9352 232.2938L334.9352 245.259L334.9352 245.259L245.259 245.259L245.259 245.259L245.259 232.2938z" /></clipPath><clipPath id="95"><path id="" clip-rule="evenodd" d="M0 0L594.24 0L594.24 0L594.24 841.6599L594.24 841.6599L0 841.6599L0 841.6599L0 0z" /></clipPath><clipPath id="96"><path id="" clip-rule="evenodd" d="M0 0L594.24 0L594.24 0L594.24 841.6599L594.24 841.6599L0 841.6599L0 841.6599L0 0z" /></clipPath><clipPath id="97"><path id="" clip-rule="evenodd" d="M245.259 232.2938L334.9352 232.2938L334.9352 232.2938L334.9352 245.259L334.9352 245.259L245.259 245.259L245.259 245.259L245.259 232.2938z" /></clipPath><clipPath id="98"><path id="" clip-rule="evenodd" d="M0 0L594.24 0L594.24 0L594.24 841.6599L594.24 841.6599L0 841.6599L0 841.6599L0 0z" /></clipPath><clipPath id="99"><path id="" clip-rule="evenodd" d="M0 0L594.24 0L594.24 0L594.24 841.6599L594.24 841.6599L0 841.6599L0 841.6599L0 0z" /></clipPath><clipPath id="100"><path id="" clip-rule="evenodd" d="M337.0961 232.2938L474.8518 232.2938L474.8518 232.2938L474.8518 245.259L474.8518 245.259L337.0961 245.259L337.0961 245.259L337.0961 232.2938z" /></clipPath><clipPath id="101"><path id="" clip-rule="evenodd" d="M0 0L594.24 0L594.24 0L594.24 841.6599L594.24 841.6599L0 841.6599L0 841.6599L0 0z" /></clipPath><clipPath id="102"><path id="" clip-rule="evenodd" d="M0 0L594.24 0L594.24 0L594.24 841.6599L594.24 841.6599L0 841.6599L0 841.6599L0 0z" /></clipPath><clipPath id="103"><path id="" clip-rule="evenodd" d="M337.0961 232.2938L474.8518 232.2938L474.8518 232.2938L474.8518 245.259L474.8518 245.259L337.0961 245.259L337.0961 245.259L337.0961 232.2938z" /></clipPath><clipPath id="104"><path id="" clip-rule="evenodd" d="M0 0L594.24 0L594.24 0L594.24 841.6599L594.24 841.6599L0 841.6599L0 841.6599L0 0z" /></clipPath><clipPath id="105"><path id="" clip-rule="evenodd" d="M0 0L594.24 0L594.24 0L594.24 841.6599L594.24 841.6599L0 841.6599L0 841.6599L0 0z" /></clipPath><clipPath id="106"><path id="" clip-rule="evenodd" d="M337.0961 232.2938L474.8518 232.2938L474.8518 232.2938L474.8518 245.259L474.8518 245.259L337.0961 245.259L337.0961 245.259L337.0961 232.2938z" /></clipPath><clipPath id="107"><path id="" clip-rule="evenodd" d="M0 0L594.24 0L594.24 0L594.24 841.6599L594.24 841.6599L0 841.6599L0 841.6599L0 0z" /></clipPath><clipPath id="108"><path id="" clip-rule="evenodd" d="M0 0L594.24 0L594.24 0L594.24 841.6599L594.24 841.6599L0 841.6599L0 841.6599L0 0z" /></clipPath><clipPath id="109"><path id="" clip-rule="evenodd" d="M337.0961 232.2938L474.8518 232.2938L474.8518 232.2938L474.8518 245.259L474.8518 245.259L337.0961 245.259L337.0961 245.259L337.0961 232.2938z" /></clipPath><clipPath id="110"><path id="" clip-rule="evenodd" d="M0 0L594.24 0L594.24 0L594.24 841.6599L594.24 841.6599L0 841.6599L0 841.6599L0 0z" /></clipPath><clipPath id="111"><path id="" clip-rule="evenodd" d="M0 0L594.24 0L594.24 0L594.24 841.6599L594.24 841.6599L0 841.6599L0 841.6599L0 0z" /></clipPath><clipPath id="112"><path id="" clip-rule="evenodd" d="M477.0126 232.2938L532.6552 232.2938L532.6552 232.2938L532.6552 245.259L532.6552 245.259L477.0126 245.259L477.0126 245.259L477.0126 232.2938z" /></clipPath><clipPath id="113"><path id="" clip-rule="evenodd" d="M0 0L594.24 0L594.24 0L594.24 841.6599L594.24 841.6599L0 841.6599L0 841.6599L0 0z" /></clipPath><clipPath id="114"><path id="" clip-rule="evenodd" d="M0 0L594.24 0L594.24 0L594.24 841.6599L594.24 841.6599L0 841.6599L0 841.6599L0 0z" /></clipPath><clipPath id="115"><path id="" clip-rule="evenodd" d="M477.0126 232.2938L532.6552 232.2938L532.6552 232.2938L532.6552 245.259L532.6552 245.259L477.0126 245.259L477.0126 245.259L477.0126 232.2938z" /></clipPath><clipPath id="116"><path id="" clip-rule="evenodd" d="M0 0L594.24 0L594.24 0L594.24 841.6599L594.24 841.6599L0 841.6599L0 841.6599L0 0z" /></clipPath><clipPath id="117"><path id="" clip-rule="evenodd" d="M0 0L594.24 0L594.24 0L594.24 841.6599L594.24 841.6599L0 841.6599L0 841.6599L0 0z" /></clipPath><clipPath id="118"><path id="" clip-rule="evenodd" d="M477.0126 232.2938L532.6552 232.2938L532.6552 232.2938L532.6552 245.259L532.6552 245.259L477.0126 245.259L477.0126 245.259L477.0126 232.2938z" /></clipPath><clipPath id="119"><path id="" clip-rule="evenodd" d="M0 0L594.24 0L594.24 0L594.24 841.6599L594.24 841.6599L0 841.6599L0 841.6599L0 0z" /></clipPath><clipPath id="120"><path id="" clip-rule="evenodd" d="M0 0L594.24 0L594.24 0L594.24 841.6599L594.24 841.6599L0 841.6599L0 841.6599L0 0z" /></clipPath><clipPath id="121"><path id="" clip-rule="evenodd" d="M477.0126 232.2938L532.6552 232.2938L532.6552 232.2938L532.6552 245.259L532.6552 245.259L477.0126 245.259L477.0126 245.259L477.0126 232.2938z" /></clipPath><clipPath id="122"><path id="" clip-rule="evenodd" d="M0 0L594.24 0L594.24 0L594.24 841.6599L594.24 841.6599L0 841.6599L0 841.6599L0 0z" /></clipPath><clipPath id="123"><path id="" clip-rule="evenodd" d="M0 0L594.24 0L594.24 0L594.24 841.6599L594.24 841.6599L0 841.6599L0 841.6599L0 0z" /></clipPath><clipPath id="124"><path id="" clip-rule="evenodd" d="M241.4775 319.8092L325.2113 319.8092L325.2113 319.8092L325.2113 337.0961L325.2113 337.0961L241.4775 337.0961L241.4775 337.0961L241.4775 319.8092z" /></clipPath><clipPath id="125"><path id="" clip-rule="evenodd" d="M0 0L594.24 0L594.24 0L594.24 841.6599L594.24 841.6599L0 841.6599L0 841.6599L0 0z" /></clipPath><clipPath id="126"><path id="" clip-rule="evenodd" d="M0 0L594.24 0L594.24 0L594.24 841.6599L594.24 841.6599L0 841.6599L0 841.6599L0 0z" /></clipPath><clipPath id="127"><path id="" clip-rule="evenodd" d="M241.4775 319.8092L325.2113 319.8092L325.2113 319.8092L325.2113 337.0961L325.2113 337.0961L241.4775 337.0961L241.4775 337.0961L241.4775 319.8092z" /></clipPath><clipPath id="128"><path id="" clip-rule="evenodd" d="M0 0L594.24 0L594.24 0L594.24 841.6599L594.24 841.6599L0 841.6599L0 841.6599L0 0z" /></clipPath><clipPath id="129"><path id="" clip-rule="evenodd" d="M0 0L594.24 0L594.24 0L594.24 841.6599L594.24 841.6599L0 841.6599L0 841.6599L0 0z" /></clipPath><clipPath id="130"><path id="" clip-rule="evenodd" d="M241.4775 319.8092L325.2113 319.8092L325.2113 319.8092L325.2113 337.0961L325.2113 337.0961L241.4775 337.0961L241.4775 337.0961L241.4775 319.8092z" /></clipPath><clipPath id="131"><path id="" clip-rule="evenodd" d="M0 0L594.24 0L594.24 0L594.24 841.6599L594.24 841.6599L0 841.6599L0 841.6599L0 0z" /></clipPath><clipPath id="132"><path id="" clip-rule="evenodd" d="M0 0L594.24 0L594.24 0L594.24 841.6599L594.24 841.6599L0 841.6599L0 841.6599L0 0z" /></clipPath><clipPath id="133"><path id="" clip-rule="evenodd" d="M241.4775 319.8092L325.2113 319.8092L325.2113 319.8092L325.2113 337.0961L325.2113 337.0961L241.4775 337.0961L241.4775 337.0961L241.4775 319.8092z" /></clipPath><clipPath id="134"><path id="" clip-rule="evenodd" d="M0 0L594.24 0L594.24 0L594.24 841.6599L594.24 841.6599L0 841.6599L0 841.6599L0 0z" /></clipPath><clipPath id="135"><path id="" clip-rule="evenodd" d="M0 0L594.24 0L594.24 0L594.24 841.6599L594.24 841.6599L0 841.6599L0 841.6599L0 0z" /></clipPath><clipPath id="136"><path id="" clip-rule="evenodd" d="M245.259 341.9581L366.8081 341.9581L366.8081 341.9581L366.8081 354.9233L366.8081 354.9233L245.259 354.9233L245.259 354.9233L245.259 341.9581z" /></clipPath><clipPath id="137"><path id="" clip-rule="evenodd" d="M0 0L594.24 0L594.24 0L594.24 841.6599L594.24 841.6599L0 841.6599L0 841.6599L0 0z" /></clipPath><clipPath id="138"><path id="" clip-rule="evenodd" d="M0 0L594.24 0L594.24 0L594.24 841.6599L594.24 841.6599L0 841.6599L0 841.6599L0 0z" /></clipPath><clipPath id="139"><path id="" clip-rule="evenodd" d="M245.259 341.9581L366.8081 341.9581L366.8081 341.9581L366.8081 354.9233L366.8081 354.9233L245.259 354.9233L245.259 354.9233L245.259 341.9581z" /></clipPath><clipPath id="140"><path id="" clip-rule="evenodd" d="M0 0L594.24 0L594.24 0L594.24 841.6599L594.24 841.6599L0 841.6599L0 841.6599L0 0z" /></clipPath><clipPath id="141"><path id="" clip-rule="evenodd" d="M0 0L594.24 0L594.24 0L594.24 841.6599L594.24 841.6599L0 841.6599L0 841.6599L0 0z" /></clipPath><clipPath id="142"><path id="" clip-rule="evenodd" d="M245.259 341.9581L366.8081 341.9581L366.8081 341.9581L366.8081 354.9233L366.8081 354.9233L245.259 354.9233L245.259 354.9233L245.259 341.9581z" /></clipPath><clipPath id="143"><path id="" clip-rule="evenodd" d="M0 0L594.24 0L594.24 0L594.24 841.6599L594.24 841.6599L0 841.6599L0 841.6599L0 0z" /></clipPath><clipPath id="144"><path id="" clip-rule="evenodd" d="M0 0L594.24 0L594.24 0L594.24 841.6599L594.24 841.6599L0 841.6599L0 841.6599L0 0z" /></clipPath><clipPath id="145"><path id="" clip-rule="evenodd" d="M245.259 341.9581L366.8081 341.9581L366.8081 341.9581L366.8081 354.9233L366.8081 354.9233L245.259 354.9233L245.259 354.9233L245.259 341.9581z" /></clipPath><clipPath id="146"><path id="" clip-rule="evenodd" d="M0 0L594.24 0L594.24 0L594.24 841.6599L594.24 841.6599L0 841.6599L0 841.6599L0 0z" /></clipPath><clipPath id="147"><path id="" clip-rule="evenodd" d="M0 0L594.24 0L594.24 0L594.24 841.6599L594.24 841.6599L0 841.6599L0 841.6599L0 0z" /></clipPath><clipPath id="148"><path id="" clip-rule="evenodd" d="M368.969 341.9581L407.3245 341.9581L407.3245 341.9581L407.3245 354.9233L407.3245 354.9233L368.969 354.9233L368.969 354.9233L368.969 341.9581z" /></clipPath><clipPath id="149"><path id="" clip-rule="evenodd" d="M0 0L594.24 0L594.24 0L594.24 841.6599L594.24 841.6599L0 841.6599L0 841.6599L0 0z" /></clipPath><clipPath id="150"><path id="" clip-rule="evenodd" d="M0 0L594.24 0L594.24 0L594.24 841.6599L594.24 841.6599L0 841.6599L0 841.6599L0 0z" /></clipPath><clipPath id="151"><path id="" clip-rule="evenodd" d="M368.969 341.9581L407.3245 341.9581L407.3245 341.9581L407.3245 354.9233L407.3245 354.9233L368.969 354.9233L368.969 354.9233L368.969 341.9581z" /></clipPath><clipPath id="152"><path id="" clip-rule="evenodd" d="M0 0L594.24 0L594.24 0L594.24 841.6599L594.24 841.6599L0 841.6599L0 841.6599L0 0z" /></clipPath><clipPath id="153"><path id="" clip-rule="evenodd" d="M0 0L594.24 0L594.24 0L594.24 841.6599L594.24 841.6599L0 841.6599L0 841.6599L0 0z" /></clipPath><clipPath id="154"><path id="" clip-rule="evenodd" d="M368.969 341.9581L407.3245 341.9581L407.3245 341.9581L407.3245 354.9233L407.3245 354.9233L368.969 354.9233L368.969 354.9233L368.969 341.9581z" /></clipPath><clipPath id="155"><path id="" clip-rule="evenodd" d="M0 0L594.24 0L594.24 0L594.24 841.6599L594.24 841.6599L0 841.6599L0 841.6599L0 0z" /></clipPath><clipPath id="156"><path id="" clip-rule="evenodd" d="M0 0L594.24 0L594.24 0L594.24 841.6599L594.24 841.6599L0 841.6599L0 841.6599L0 0z" /></clipPath><clipPath id="157"><path id="" clip-rule="evenodd" d="M368.969 341.9581L407.3245 341.9581L407.3245 341.9581L407.3245 354.9233L407.3245 354.9233L368.969 354.9233L368.969 354.9233L368.969 341.9581z" /></clipPath><clipPath id="158"><path id="" clip-rule="evenodd" d="M0 0L594.24 0L594.24 0L594.24 841.6599L594.24 841.6599L0 841.6599L0 841.6599L0 0z" /></clipPath><clipPath id="159"><path id="" clip-rule="evenodd" d="M0 0L594.24 0L594.24 0L594.24 841.6599L594.24 841.6599L0 841.6599L0 841.6599L0 0z" /></clipPath><clipPath id="160"><path id="" clip-rule="evenodd" d="M0 0L594.24 0L594.24 0L594.24 841.6599L594.24 841.6599L0 841.6599L0 841.6599L0 0z" /></clipPath><clipPath id="161"><path id="" clip-rule="evenodd" d="M0 0L594.24 0L594.24 0L594.24 841.6599L594.24 841.6599L0 841.6599L0 841.6599L0 0z" /></clipPath><clipPath id="162"><path id="" clip-rule="evenodd" d="M0 0L594.24 0L594.24 0L594.24 841.6599L594.24 841.6599L0 841.6599L0 841.6599L0 0z" /></clipPath><clipPath id="163"><path id="" clip-rule="evenodd" d="M0 0L594.24 0L594.24 0L594.24 841.6599L594.24 841.6599L0 841.6599L0 841.6599L0 0z" /></clipPath><clipPath id="164"><path id="" clip-rule="evenodd" d="M245.259 407.8647L330.0733 407.8647L330.0733 407.8647L330.0733 420.83L330.0733 420.83L245.259 420.83L245.259 420.83L245.259 407.8647z" /></clipPath><clipPath id="165"><path id="" clip-rule="evenodd" d="M0 0L594.24 0L594.24 0L594.24 841.6599L594.24 841.6599L0 841.6599L0 841.6599L0 0z" /></clipPath><clipPath id="166"><path id="" clip-rule="evenodd" d="M0 0L594.24 0L594.24 0L594.24 841.6599L594.24 841.6599L0 841.6599L0 841.6599L0 0z" /></clipPath><clipPath id="167"><path id="" clip-rule="evenodd" d="M245.259 407.8647L330.0733 407.8647L330.0733 407.8647L330.0733 420.83L330.0733 420.83L245.259 420.83L245.259 420.83L245.259 407.8647z" /></clipPath><clipPath id="168"><path id="" clip-rule="evenodd" d="M0 0L594.24 0L594.24 0L594.24 841.6599L594.24 841.6599L0 841.6599L0 841.6599L0 0z" /></clipPath><clipPath id="169"><path id="" clip-rule="evenodd" d="M0 0L594.24 0L594.24 0L594.24 841.6599L594.24 841.6599L0 841.6599L0 841.6599L0 0z" /></clipPath><clipPath id="170"><path id="" clip-rule="evenodd" d="M245.259 407.8647L330.0733 407.8647L330.0733 407.8647L330.0733 420.83L330.0733 420.83L245.259 420.83L245.259 420.83L245.259 407.8647z" /></clipPath><clipPath id="171"><path id="" clip-rule="evenodd" d="M0 0L594.24 0L594.24 0L594.24 841.6599L594.24 841.6599L0 841.6599L0 841.6599L0 0z" /></clipPath><clipPath id="172"><path id="" clip-rule="evenodd" d="M0 0L594.24 0L594.24 0L594.24 841.6599L594.24 841.6599L0 841.6599L0 841.6599L0 0z" /></clipPath><clipPath id="173"><path id="" clip-rule="evenodd" d="M245.259 407.8647L330.0733 407.8647L330.0733 407.8647L330.0733 420.83L330.0733 420.83L245.259 420.83L245.259 420.83L245.259 407.8647z" /></clipPath><clipPath id="174"><path id="" clip-rule="evenodd" d="M0 0L594.24 0L594.24 0L594.24 841.6599L594.24 841.6599L0 841.6599L0 841.6599L0 0z" /></clipPath><clipPath id="175"><path id="" clip-rule="evenodd" d="M0 0L594.24 0L594.24 0L594.24 841.6599L594.24 841.6599L0 841.6599L0 841.6599L0 0z" /></clipPath><clipPath id="176"><path id="" clip-rule="evenodd" d="M332.2342 407.8647L469.9898 407.8647L469.9898 407.8647L469.9898 420.83L469.9898 420.83L332.2342 420.83L332.2342 420.83L332.2342 407.8647z" /></clipPath><clipPath id="177"><path id="" clip-rule="evenodd" d="M0 0L594.24 0L594.24 0L594.24 841.6599L594.24 841.6599L0 841.6599L0 841.6599L0 0z" /></clipPath><clipPath id="178"><path id="" clip-rule="evenodd" d="M0 0L594.24 0L594.24 0L594.24 841.6599L594.24 841.6599L0 841.6599L0 841.6599L0 0z" /></clipPath><clipPath id="179"><path id="" clip-rule="evenodd" d="M332.2342 407.8647L469.9898 407.8647L469.9898 407.8647L469.9898 420.83L469.9898 420.83L332.2342 420.83L332.2342 420.83L332.2342 407.8647z" /></clipPath><clipPath id="180"><path id="" clip-rule="evenodd" d="M0 0L594.24 0L594.24 0L594.24 841.6599L594.24 841.6599L0 841.6599L0 841.6599L0 0z" /></clipPath><clipPath id="181"><path id="" clip-rule="evenodd" d="M0 0L594.24 0L594.24 0L594.24 841.6599L594.24 841.6599L0 841.6599L0 841.6599L0 0z" /></clipPath><clipPath id="182"><path id="" clip-rule="evenodd" d="M332.2342 407.8647L469.9898 407.8647L469.9898 407.8647L469.9898 420.83L469.9898 420.83L332.2342 420.83L332.2342 420.83L332.2342 407.8647z" /></clipPath><clipPath id="183"><path id="" clip-rule="evenodd" d="M0 0L594.24 0L594.24 0L594.24 841.6599L594.24 841.6599L0 841.6599L0 841.6599L0 0z" /></clipPath><clipPath id="184"><path id="" clip-rule="evenodd" d="M0 0L594.24 0L594.24 0L594.24 841.6599L594.24 841.6599L0 841.6599L0 841.6599L0 0z" /></clipPath><clipPath id="185"><path id="" clip-rule="evenodd" d="M332.2342 407.8647L469.9898 407.8647L469.9898 407.8647L469.9898 420.83L469.9898 420.83L332.2342 420.83L332.2342 420.83L332.2342 407.8647z" /></clipPath><clipPath id="186"><path id="" clip-rule="evenodd" d="M0 0L594.24 0L594.24 0L594.24 841.6599L594.24 841.6599L0 841.6599L0 841.6599L0 0z" /></clipPath><clipPath id="187"><path id="" clip-rule="evenodd" d="M0 0L594.24 0L594.24 0L594.24 841.6599L594.24 841.6599L0 841.6599L0 841.6599L0 0z" /></clipPath><clipPath id="188"><path id="" clip-rule="evenodd" d="M0 0L594.24 0L594.24 0L594.24 841.6599L594.24 841.6599L0 841.6599L0 841.6599L0 0z" /></clipPath><clipPath id="189"><path id="" clip-rule="evenodd" d="M0 0L594.24 0L594.24 0L594.24 841.6599L594.24 841.6599L0 841.6599L0 841.6599L0 0z" /></clipPath><clipPath id="190"><path id="" clip-rule="evenodd" d="M0 0L594.24 0L594.24 0L594.24 841.6599L594.24 841.6599L0 841.6599L0 841.6599L0 0z" /></clipPath><clipPath id="191"><path id="" clip-rule="evenodd" d="M0 0L594.24 0L594.24 0L594.24 841.6599L594.24 841.6599L0 841.6599L0 841.6599L0 0z" /></clipPath><clipPath id="192"><path id="" clip-rule="evenodd" d="M245.259 473.7713L326.2918 473.7713L326.2918 473.7713L326.2918 486.7366L326.2918 486.7366L245.259 486.7366L245.259 486.7366L245.259 473.7713z" /></clipPath><clipPath id="193"><path id="" clip-rule="evenodd" d="M0 0L594.24 0L594.24 0L594.24 841.6599L594.24 841.6599L0 841.6599L0 841.6599L0 0z" /></clipPath><clipPath id="194"><path id="" clip-rule="evenodd" d="M0 0L594.24 0L594.24 0L594.24 841.6599L594.24 841.6599L0 841.6599L0 841.6599L0 0z" /></clipPath><clipPath id="195"><path id="" clip-rule="evenodd" d="M245.259 473.7713L326.2918 473.7713L326.2918 473.7713L326.2918 486.7366L326.2918 486.7366L245.259 486.7366L245.259 486.7366L245.259 473.7713z" /></clipPath><clipPath id="196"><path id="" clip-rule="evenodd" d="M0 0L594.24 0L594.24 0L594.24 841.6599L594.24 841.6599L0 841.6599L0 841.6599L0 0z" /></clipPath><clipPath id="197"><path id="" clip-rule="evenodd" d="M0 0L594.24 0L594.24 0L594.24 841.6599L594.24 841.6599L0 841.6599L0 841.6599L0 0z" /></clipPath><clipPath id="198"><path id="" clip-rule="evenodd" d="M245.259 473.7713L326.2918 473.7713L326.2918 473.7713L326.2918 486.7366L326.2918 486.7366L245.259 486.7366L245.259 486.7366L245.259 473.7713z" /></clipPath><clipPath id="199"><path id="" clip-rule="evenodd" d="M0 0L594.24 0L594.24 0L594.24 841.6599L594.24 841.6599L0 841.6599L0 841.6599L0 0z" /></clipPath><clipPath id="200"><path id="" clip-rule="evenodd" d="M0 0L594.24 0L594.24 0L594.24 841.6599L594.24 841.6599L0 841.6599L0 841.6599L0 0z" /></clipPath><clipPath id="201"><path id="" clip-rule="evenodd" d="M245.259 473.7713L326.2918 473.7713L326.2918 473.7713L326.2918 486.7366L326.2918 486.7366L245.259 486.7366L245.259 486.7366L245.259 473.7713z" /></clipPath><clipPath id="202"><path id="" clip-rule="evenodd" d="M0 0L594.24 0L594.24 0L594.24 841.6599L594.24 841.6599L0 841.6599L0 841.6599L0 0z" /></clipPath><clipPath id="203"><path id="" clip-rule="evenodd" d="M0 0L594.24 0L594.24 0L594.24 841.6599L594.24 841.6599L0 841.6599L0 841.6599L0 0z" /></clipPath><clipPath id="204"><path id="" clip-rule="evenodd" d="M328.4526 473.7713L404.6234 473.7713L404.6234 473.7713L404.6234 486.7366L404.6234 486.7366L328.4526 486.7366L328.4526 486.7366L328.4526 473.7713z" /></clipPath><clipPath id="205"><path id="" clip-rule="evenodd" d="M0 0L594.24 0L594.24 0L594.24 841.6599L594.24 841.6599L0 841.6599L0 841.6599L0 0z" /></clipPath><clipPath id="206"><path id="" clip-rule="evenodd" d="M0 0L594.24 0L594.24 0L594.24 841.6599L594.24 841.6599L0 841.6599L0 841.6599L0 0z" /></clipPath><clipPath id="207"><path id="" clip-rule="evenodd" d="M328.4526 473.7713L404.6234 473.7713L404.6234 473.7713L404.6234 486.7366L404.6234 486.7366L328.4526 486.7366L328.4526 486.7366L328.4526 473.7713z" /></clipPath><clipPath id="208"><path id="" clip-rule="evenodd" d="M0 0L594.24 0L594.24 0L594.24 841.6599L594.24 841.6599L0 841.6599L0 841.6599L0 0z" /></clipPath><clipPath id="209"><path id="" clip-rule="evenodd" d="M0 0L594.24 0L594.24 0L594.24 841.6599L594.24 841.6599L0 841.6599L0 841.6599L0 0z" /></clipPath><clipPath id="210"><path id="" clip-rule="evenodd" d="M328.4526 473.7713L404.6234 473.7713L404.6234 473.7713L404.6234 486.7366L404.6234 486.7366L328.4526 486.7366L328.4526 486.7366L328.4526 473.7713z" /></clipPath><clipPath id="211"><path id="" clip-rule="evenodd" d="M0 0L594.24 0L594.24 0L594.24 841.6599L594.24 841.6599L0 841.6599L0 841.6599L0 0z" /></clipPath><clipPath id="212"><path id="" clip-rule="evenodd" d="M0 0L594.24 0L594.24 0L594.24 841.6599L594.24 841.6599L0 841.6599L0 841.6599L0 0z" /></clipPath><clipPath id="213"><path id="" clip-rule="evenodd" d="M328.4526 473.7713L404.6234 473.7713L404.6234 473.7713L404.6234 486.7366L404.6234 486.7366L328.4526 486.7366L328.4526 486.7366L328.4526 473.7713z" /></clipPath><clipPath id="214"><path id="" clip-rule="evenodd" d="M0 0L594.24 0L594.24 0L594.24 841.6599L594.24 841.6599L0 841.6599L0 841.6599L0 0z" /></clipPath><clipPath id="215"><path id="" clip-rule="evenodd" d="M0 0L594.24 0L594.24 0L594.24 841.6599L594.24 841.6599L0 841.6599L0 841.6599L0 0z" /></clipPath><clipPath id="216"><path id="" clip-rule="evenodd" d="M0 0L594.24 0L594.24 0L594.24 841.6599L594.24 841.6599L0 841.6599L0 841.6599L0 0z" /></clipPath><clipPath id="217"><path id="" clip-rule="evenodd" d="M0 0L594.24 0L594.24 0L594.24 841.6599L594.24 841.6599L0 841.6599L0 841.6599L0 0z" /></clipPath><clipPath id="218"><path id="" clip-rule="evenodd" d="M0 0L594.24 0L594.24 0L594.24 841.6599L594.24 841.6599L0 841.6599L0 841.6599L0 0z" /></clipPath><clipPath id="219"><path id="" clip-rule="evenodd" d="M0 0L594.24 0L594.24 0L594.24 841.6599L594.24 841.6599L0 841.6599L0 841.6599L0 0z" /></clipPath><clipPath id="220"><path id="" clip-rule="evenodd" d="M245.259 515.9083L366.8081 515.9083L366.8081 515.9083L366.8081 528.8735L366.8081 528.8735L245.259 528.8735L245.259 528.8735L245.259 515.9083z" /></clipPath><clipPath id="221"><path id="" clip-rule="evenodd" d="M0 0L594.24 0L594.24 0L594.24 841.6599L594.24 841.6599L0 841.6599L0 841.6599L0 0z" /></clipPath><clipPath id="222"><path id="" clip-rule="evenodd" d="M0 0L594.24 0L594.24 0L594.24 841.6599L594.24 841.6599L0 841.6599L0 841.6599L0 0z" /></clipPath><clipPath id="223"><path id="" clip-rule="evenodd" d="M245.259 515.9083L366.8081 515.9083L366.8081 515.9083L366.8081 528.8735L366.8081 528.8735L245.259 528.8735L245.259 528.8735L245.259 515.9083z" /></clipPath><clipPath id="224"><path id="" clip-rule="evenodd" d="M0 0L594.24 0L594.24 0L594.24 841.6599L594.24 841.6599L0 841.6599L0 841.6599L0 0z" /></clipPath><clipPath id="225"><path id="" clip-rule="evenodd" d="M0 0L594.24 0L594.24 0L594.24 841.6599L594.24 841.6599L0 841.6599L0 841.6599L0 0z" /></clipPath><clipPath id="226"><path id="" clip-rule="evenodd" d="M245.259 515.9083L366.8081 515.9083L366.8081 515.9083L366.8081 528.8735L366.8081 528.8735L245.259 528.8735L245.259 528.8735L245.259 515.9083z" /></clipPath><clipPath id="227"><path id="" clip-rule="evenodd" d="M0 0L594.24 0L594.24 0L594.24 841.6599L594.24 841.6599L0 841.6599L0 841.6599L0 0z" /></clipPath><clipPath id="228"><path id="" clip-rule="evenodd" d="M0 0L594.24 0L594.24 0L594.24 841.6599L594.24 841.6599L0 841.6599L0 841.6599L0 0z" /></clipPath><clipPath id="229"><path id="" clip-rule="evenodd" d="M245.259 515.9083L366.8081 515.9083L366.8081 515.9083L366.8081 528.8735L366.8081 528.8735L245.259 528.8735L245.259 528.8735L245.259 515.9083z" /></clipPath><clipPath id="230"><path id="" clip-rule="evenodd" d="M0 0L594.24 0L594.24 0L594.24 841.6599L594.24 841.6599L0 841.6599L0 841.6599L0 0z" /></clipPath><clipPath id="231"><path id="" clip-rule="evenodd" d="M0 0L594.24 0L594.24 0L594.24 841.6599L594.24 841.6599L0 841.6599L0 841.6599L0 0z" /></clipPath><clipPath id="232"><path id="" clip-rule="evenodd" d="M368.969 515.9083L413.2669 515.9083L413.2669 515.9083L413.2669 528.8735L413.2669 528.8735L368.969 528.8735L368.969 528.8735L368.969 515.9083z" /></clipPath><clipPath id="233"><path id="" clip-rule="evenodd" d="M0 0L594.24 0L594.24 0L594.24 841.6599L594.24 841.6599L0 841.6599L0 841.6599L0 0z" /></clipPath><clipPath id="234"><path id="" clip-rule="evenodd" d="M0 0L594.24 0L594.24 0L594.24 841.6599L594.24 841.6599L0 841.6599L0 841.6599L0 0z" /></clipPath><clipPath id="235"><path id="" clip-rule="evenodd" d="M368.969 515.9083L413.2669 515.9083L413.2669 515.9083L413.2669 528.8735L413.2669 528.8735L368.969 528.8735L368.969 528.8735L368.969 515.9083z" /></clipPath><clipPath id="236"><path id="" clip-rule="evenodd" d="M0 0L594.24 0L594.24 0L594.24 841.6599L594.24 841.6599L0 841.6599L0 841.6599L0 0z" /></clipPath><clipPath id="237"><path id="" clip-rule="evenodd" d="M0 0L594.24 0L594.24 0L594.24 841.6599L594.24 841.6599L0 841.6599L0 841.6599L0 0z" /></clipPath><clipPath id="238"><path id="" clip-rule="evenodd" d="M368.969 515.9083L413.2669 515.9083L413.2669 515.9083L413.2669 528.8735L413.2669 528.8735L368.969 528.8735L368.969 528.8735L368.969 515.9083z" /></clipPath><clipPath id="239"><path id="" clip-rule="evenodd" d="M0 0L594.24 0L594.24 0L594.24 841.6599L594.24 841.6599L0 841.6599L0 841.6599L0 0z" /></clipPath><clipPath id="240"><path id="" clip-rule="evenodd" d="M0 0L594.24 0L594.24 0L594.24 841.6599L594.24 841.6599L0 841.6599L0 841.6599L0 0z" /></clipPath><clipPath id="241"><path id="" clip-rule="evenodd" d="M368.969 515.9083L413.2669 515.9083L413.2669 515.9083L413.2669 528.8735L413.2669 528.8735L368.969 528.8735L368.969 528.8735L368.969 515.9083z" /></clipPath><clipPath id="242"><path id="" clip-rule="evenodd" d="M0 0L594.24 0L594.24 0L594.24 841.6599L594.24 841.6599L0 841.6599L0 841.6599L0 0z" /></clipPath><clipPath id="243"><path id="" clip-rule="evenodd" d="M0 0L594.24 0L594.24 0L594.24 841.6599L594.24 841.6599L0 841.6599L0 841.6599L0 0z" /></clipPath><clipPath id="244"><path id="" clip-rule="evenodd" d="M0 0L594.24 0L594.24 0L594.24 841.6599L594.24 841.6599L0 841.6599L0 841.6599L0 0z" /></clipPath><clipPath id="245"><path id="" clip-rule="evenodd" d="M0 0L594.24 0L594.24 0L594.24 841.6599L594.24 841.6599L0 841.6599L0 841.6599L0 0z" /></clipPath><clipPath id="246"><path id="" clip-rule="evenodd" d="M0 0L594.24 0L594.24 0L594.24 841.6599L594.24 841.6599L0 841.6599L0 841.6599L0 0z" /></clipPath><clipPath id="247"><path id="" clip-rule="evenodd" d="M0 0L594.24 0L594.24 0L594.24 841.6599L594.24 841.6599L0 841.6599L0 841.6599L0 0z" /></clipPath><clipPath id="248"><path id="" clip-rule="evenodd" d="M241.4775 615.3085L325.2113 615.3085L325.2113 615.3085L325.2113 632.5955L325.2113 632.5955L241.4775 632.5955L241.4775 632.5955L241.4775 615.3085z" /></clipPath><clipPath id="249"><path id="" clip-rule="evenodd" d="M0 0L594.24 0L594.24 0L594.24 841.6599L594.24 841.6599L0 841.6599L0 841.6599L0 0z" /></clipPath><clipPath id="250"><path id="" clip-rule="evenodd" d="M0 0L594.24 0L594.24 0L594.24 841.6599L594.24 841.6599L0 841.6599L0 841.6599L0 0z" /></clipPath><clipPath id="251"><path id="" clip-rule="evenodd" d="M241.4775 615.3085L325.2113 615.3085L325.2113 615.3085L325.2113 632.5955L325.2113 632.5955L241.4775 632.5955L241.4775 632.5955L241.4775 615.3085z" /></clipPath><clipPath id="252"><path id="" clip-rule="evenodd" d="M0 0L594.24 0L594.24 0L594.24 841.6599L594.24 841.6599L0 841.6599L0 841.6599L0 0z" /></clipPath><clipPath id="253"><path id="" clip-rule="evenodd" d="M0 0L594.24 0L594.24 0L594.24 841.6599L594.24 841.6599L0 841.6599L0 841.6599L0 0z" /></clipPath><clipPath id="254"><path id="" clip-rule="evenodd" d="M241.4775 615.3085L325.2113 615.3085L325.2113 615.3085L325.2113 632.5955L325.2113 632.5955L241.4775 632.5955L241.4775 632.5955L241.4775 615.3085z" /></clipPath><clipPath id="255"><path id="" clip-rule="evenodd" d="M0 0L594.24 0L594.24 0L594.24 841.6599L594.24 841.6599L0 841.6599L0 841.6599L0 0z" /></clipPath><clipPath id="256"><path id="" clip-rule="evenodd" d="M0 0L594.24 0L594.24 0L594.24 841.6599L594.24 841.6599L0 841.6599L0 841.6599L0 0z" /></clipPath><clipPath id="257"><path id="" clip-rule="evenodd" d="M241.4775 615.3085L325.2113 615.3085L325.2113 615.3085L325.2113 632.5955L325.2113 632.5955L241.4775 632.5955L241.4775 632.5955L241.4775 615.3085z" /></clipPath><clipPath id="258"><path id="" clip-rule="evenodd" d="M0 0L594.24 0L594.24 0L594.24 841.6599L594.24 841.6599L0 841.6599L0 841.6599L0 0z" /></clipPath><clipPath id="259"><path id="" clip-rule="evenodd" d="M0 0L594.24 0L594.24 0L594.24 841.6599L594.24 841.6599L0 841.6599L0 841.6599L0 0z" /></clipPath><clipPath id="260"><path id="" clip-rule="evenodd" d="M241.4775 673.1119L325.2113 673.1119L325.2113 673.1119L325.2113 690.3988L325.2113 690.3988L241.4775 690.3988L241.4775 690.3988L241.4775 673.1119z" /></clipPath><clipPath id="261"><path id="" clip-rule="evenodd" d="M0 0L594.24 0L594.24 0L594.24 841.6599L594.24 841.6599L0 841.6599L0 841.6599L0 0z" /></clipPath><clipPath id="262"><path id="" clip-rule="evenodd" d="M0 0L594.24 0L594.24 0L594.24 841.6599L594.24 841.6599L0 841.6599L0 841.6599L0 0z" /></clipPath><clipPath id="263"><path id="" clip-rule="evenodd" d="M241.4775 673.1119L325.2113 673.1119L325.2113 673.1119L325.2113 690.3988L325.2113 690.3988L241.4775 690.3988L241.4775 690.3988L241.4775 673.1119z" /></clipPath><clipPath id="264"><path id="" clip-rule="evenodd" d="M0 0L594.24 0L594.24 0L594.24 841.6599L594.24 841.6599L0 841.6599L0 841.6599L0 0z" /></clipPath><clipPath id="265"><path id="" clip-rule="evenodd" d="M0 0L594.24 0L594.24 0L594.24 841.6599L594.24 841.6599L0 841.6599L0 841.6599L0 0z" /></clipPath><clipPath id="266"><path id="" clip-rule="evenodd" d="M241.4775 673.1119L325.2113 673.1119L325.2113 673.1119L325.2113 690.3988L325.2113 690.3988L241.4775 690.3988L241.4775 690.3988L241.4775 673.1119z" /></clipPath><clipPath id="267"><path id="" clip-rule="evenodd" d="M0 0L594.24 0L594.24 0L594.24 841.6599L594.24 841.6599L0 841.6599L0 841.6599L0 0z" /></clipPath><clipPath id="268"><path id="" clip-rule="evenodd" d="M0 0L594.24 0L594.24 0L594.24 841.6599L594.24 841.6599L0 841.6599L0 841.6599L0 0z" /></clipPath><clipPath id="269"><path id="" clip-rule="evenodd" d="M241.4775 673.1119L325.2113 673.1119L325.2113 673.1119L325.2113 690.3988L325.2113 690.3988L241.4775 690.3988L241.4775 690.3988L241.4775 673.1119z" /></clipPath><clipPath id="270"><path id="" clip-rule="evenodd" d="M0 0L594.24 0L594.24 0L594.24 841.6599L594.24 841.6599L0 841.6599L0 841.6599L0 0z" /></clipPath><clipPath id="271"><path id="" clip-rule="evenodd" d="M0 0L594.24 0L594.24 0L594.24 841.6599L594.24 841.6599L0 841.6599L0 841.6599L0 0z" /></clipPath><clipPath id="272"><path id="" clip-rule="evenodd" d="M245.259 695.2607L364.107 695.2607L364.107 695.2607L364.107 707.1456L364.107 707.1456L245.259 707.1456L245.259 707.1456L245.259 695.2607z" /></clipPath><clipPath id="273"><path id="" clip-rule="evenodd" d="M0 0L594.24 0L594.24 0L594.24 841.6599L594.24 841.6599L0 841.6599L0 841.6599L0 0z" /></clipPath><clipPath id="274"><path id="" clip-rule="evenodd" d="M0 0L594.24 0L594.24 0L594.24 841.6599L594.24 841.6599L0 841.6599L0 841.6599L0 0z" /></clipPath><clipPath id="275"><path id="" clip-rule="evenodd" d="M245.259 695.2607L364.107 695.2607L364.107 695.2607L364.107 707.1456L364.107 707.1456L245.259 707.1456L245.259 707.1456L245.259 695.2607z" /></clipPath><clipPath id="276"><path id="" clip-rule="evenodd" d="M0 0L594.24 0L594.24 0L594.24 841.6599L594.24 841.6599L0 841.6599L0 841.6599L0 0z" /></clipPath><clipPath id="277"><path id="" clip-rule="evenodd" d="M0 0L594.24 0L594.24 0L594.24 841.6599L594.24 841.6599L0 841.6599L0 841.6599L0 0z" /></clipPath><clipPath id="278"><path id="" clip-rule="evenodd" d="M245.259 695.2607L364.107 695.2607L364.107 695.2607L364.107 707.1456L364.107 707.1456L245.259 707.1456L245.259 707.1456L245.259 695.2607z" /></clipPath><clipPath id="279"><path id="" clip-rule="evenodd" d="M0 0L594.24 0L594.24 0L594.24 841.6599L594.24 841.6599L0 841.6599L0 841.6599L0 0z" /></clipPath><clipPath id="280"><path id="" clip-rule="evenodd" d="M0 0L594.24 0L594.24 0L594.24 841.6599L594.24 841.6599L0 841.6599L0 841.6599L0 0z" /></clipPath><clipPath id="281"><path id="" clip-rule="evenodd" d="M245.259 695.2607L364.107 695.2607L364.107 695.2607L364.107 707.1456L364.107 707.1456L245.259 707.1456L245.259 707.1456L245.259 695.2607z" /></clipPath><clipPath id="282"><path id="" clip-rule="evenodd" d="M0 0L594.24 0L594.24 0L594.24 841.6599L594.24 841.6599L0 841.6599L0 841.6599L0 0z" /></clipPath><clipPath id="283"><path id="" clip-rule="evenodd" d="M0 0L594.24 0L594.24 0L594.24 841.6599L594.24 841.6599L0 841.6599L0 841.6599L0 0z" /></clipPath><clipPath id="284"><path id="" clip-rule="evenodd" d="M366.2679 695.2607L513.7475 695.2607L513.7475 695.2607L513.7475 707.1456L513.7475 707.1456L366.2679 707.1456L366.2679 707.1456L366.2679 695.2607z" /></clipPath><clipPath id="285"><path id="" clip-rule="evenodd" d="M0 0L594.24 0L594.24 0L594.24 841.6599L594.24 841.6599L0 841.6599L0 841.6599L0 0z" /></clipPath><clipPath id="286"><path id="" clip-rule="evenodd" d="M0 0L594.24 0L594.24 0L594.24 841.6599L594.24 841.6599L0 841.6599L0 841.6599L0 0z" /></clipPath><clipPath id="287"><path id="" clip-rule="evenodd" d="M366.2679 695.2607L513.7475 695.2607L513.7475 695.2607L513.7475 707.1456L513.7475 707.1456L366.2679 707.1456L366.2679 707.1456L366.2679 695.2607z" /></clipPath><clipPath id="288"><path id="" clip-rule="evenodd" d="M0 0L594.24 0L594.24 0L594.24 841.6599L594.24 841.6599L0 841.6599L0 841.6599L0 0z" /></clipPath><clipPath id="289"><path id="" clip-rule="evenodd" d="M0 0L594.24 0L594.24 0L594.24 841.6599L594.24 841.6599L0 841.6599L0 841.6599L0 0z" /></clipPath><clipPath id="290"><path id="" clip-rule="evenodd" d="M366.2679 695.2607L513.7475 695.2607L513.7475 695.2607L513.7475 707.1456L513.7475 707.1456L366.2679 707.1456L366.2679 707.1456L366.2679 695.2607z" /></clipPath><clipPath id="291"><path id="" clip-rule="evenodd" d="M0 0L594.24 0L594.24 0L594.24 841.6599L594.24 841.6599L0 841.6599L0 841.6599L0 0z" /></clipPath><clipPath id="292"><path id="" clip-rule="evenodd" d="M0 0L594.24 0L594.24 0L594.24 841.6599L594.24 841.6599L0 841.6599L0 841.6599L0 0z" /></clipPath><clipPath id="293"><path id="" clip-rule="evenodd" d="M366.2679 695.2607L513.7475 695.2607L513.7475 695.2607L513.7475 707.1456L513.7475 707.1456L366.2679 707.1456L366.2679 707.1456L366.2679 695.2607z" /></clipPath><clipPath id="294"><path id="" clip-rule="evenodd" d="M0 0L594.24 0L594.24 0L594.24 841.6599L594.24 841.6599L0 841.6599L0 841.6599L0 0z" /></clipPath><clipPath id="295"><path id="" clip-rule="evenodd" d="M0 0L594.24 0L594.24 0L594.24 841.6599L594.24 841.6599L0 841.6599L0 841.6599L0 0z" /></clipPath><clipPath id="296"><path id="" clip-rule="evenodd" d="M515.9083 695.2607L529.4138 695.2607L529.4138 695.2607L529.4138 707.1456L529.4138 707.1456L515.9083 707.1456L515.9083 707.1456L515.9083 695.2607z" /></clipPath><clipPath id="297"><path id="" clip-rule="evenodd" d="M0 0L594.24 0L594.24 0L594.24 841.6599L594.24 841.6599L0 841.6599L0 841.6599L0 0z" /></clipPath><clipPath id="298"><path id="" clip-rule="evenodd" d="M0 0L594.24 0L594.24 0L594.24 841.6599L594.24 841.6599L0 841.6599L0 841.6599L0 0z" /></clipPath><clipPath id="299"><path id="" clip-rule="evenodd" d="M515.9083 695.2607L529.4138 695.2607L529.4138 695.2607L529.4138 707.1456L529.4138 707.1456L515.9083 707.1456L515.9083 707.1456L515.9083 695.2607z" /></clipPath><clipPath id="300"><path id="" clip-rule="evenodd" d="M0 0L594.24 0L594.24 0L594.24 841.6599L594.24 841.6599L0 841.6599L0 841.6599L0 0z" /></clipPath><clipPath id="301"><path id="" clip-rule="evenodd" d="M0 0L594.24 0L594.24 0L594.24 841.6599L594.24 841.6599L0 841.6599L0 841.6599L0 0z" /></clipPath><clipPath id="302"><path id="" clip-rule="evenodd" d="M515.9083 695.2607L529.4138 695.2607L529.4138 695.2607L529.4138 707.1456L529.4138 707.1456L515.9083 707.1456L515.9083 707.1456L515.9083 695.2607z" /></clipPath><clipPath id="303"><path id="" clip-rule="evenodd" d="M0 0L594.24 0L594.24 0L594.24 841.6599L594.24 841.6599L0 841.6599L0 841.6599L0 0z" /></clipPath><clipPath id="304"><path id="" clip-rule="evenodd" d="M0 0L594.24 0L594.24 0L594.24 841.6599L594.24 841.6599L0 841.6599L0 841.6599L0 0z" /></clipPath><clipPath id="305"><path id="" clip-rule="evenodd" d="M515.9083 695.2607L529.4138 695.2607L529.4138 695.2607L529.4138 707.1456L529.4138 707.1456L515.9083 707.1456L515.9083 707.1456L515.9083 695.2607z" /></clipPath><clipPath id="306"><path id="" clip-rule="evenodd" d="M0 0L594.24 0L594.24 0L594.24 841.6599L594.24 841.6599L0 841.6599L0 841.6599L0 0z" /></clipPath><clipPath id="307"><path id="" clip-rule="evenodd" d="M0 0L594.24 0L594.24 0L594.24 841.6599L594.24 841.6599L0 841.6599L0 841.6599L0 0z" /></clipPath><clipPath id="308"><path id="" clip-rule="evenodd" d="M241.4775 757.9261L303.6026 757.9261L303.6026 757.9261L303.6026 775.2131L303.6026 775.2131L241.4775 775.2131L241.4775 775.2131L241.4775 757.9261z" /></clipPath><clipPath id="309"><path id="" clip-rule="evenodd" d="M0 0L594.24 0L594.24 0L594.24 841.6599L594.24 841.6599L0 841.6599L0 841.6599L0 0z" /></clipPath><clipPath id="310"><path id="" clip-rule="evenodd" d="M0 0L594.24 0L594.24 0L594.24 841.6599L594.24 841.6599L0 841.6599L0 841.6599L0 0z" /></clipPath><clipPath id="311"><path id="" clip-rule="evenodd" d="M241.4775 757.9261L303.6026 757.9261L303.6026 757.9261L303.6026 775.2131L303.6026 775.2131L241.4775 775.2131L241.4775 775.2131L241.4775 757.9261z" /></clipPath><clipPath id="312"><path id="" clip-rule="evenodd" d="M0 0L594.24 0L594.24 0L594.24 841.6599L594.24 841.6599L0 841.6599L0 841.6599L0 0z" /></clipPath><clipPath id="313"><path id="" clip-rule="evenodd" d="M0 0L594.24 0L594.24 0L594.24 841.6599L594.24 841.6599L0 841.6599L0 841.6599L0 0z" /></clipPath><clipPath id="314"><path id="" clip-rule="evenodd" d="M241.4775 757.9261L303.6026 757.9261L303.6026 757.9261L303.6026 775.2131L303.6026 775.2131L241.4775 775.2131L241.4775 775.2131L241.4775 757.9261z" /></clipPath><clipPath id="315"><path id="" clip-rule="evenodd" d="M0 0L594.24 0L594.24 0L594.24 841.6599L594.24 841.6599L0 841.6599L0 841.6599L0 0z" /></clipPath><clipPath id="316"><path id="" clip-rule="evenodd" d="M0 0L594.24 0L594.24 0L594.24 841.6599L594.24 841.6599L0 841.6599L0 841.6599L0 0z" /></clipPath><clipPath id="317"><path id="" clip-rule="evenodd" d="M241.4775 757.9261L303.6026 757.9261L303.6026 757.9261L303.6026 775.2131L303.6026 775.2131L241.4775 775.2131L241.4775 775.2131L241.4775 757.9261z" /></clipPath><clipPath id="318"><path id="" clip-rule="evenodd" d="M0 0L594.24 0L594.24 0L594.24 841.6599L594.24 841.6599L0 841.6599L0 841.6599L0 0z" /></clipPath><clipPath id="319"><path id="" clip-rule="evenodd" d="M0 0L594.24 0L594.24 0L594.24 841.6599L594.24 841.6599L0 841.6599L0 841.6599L0 0z" /></clipPath><clipPath id="320"><path id="" clip-rule="evenodd" d="M48.61964 18.90765L135.0546 18.90765L135.0546 18.90765L135.0546 105.3425L135.0546 105.3425L48.61964 105.3425L48.61964 105.3425L48.61964 18.90765z" /></clipPath><clipPath id="321"><path id="" clip-rule="evenodd" d="M0 0L594.24 0L594.24 0L594.24 841.6599L594.24 841.6599L0 841.6599L0 841.6599L0 0z" /></clipPath><clipPath id="322"><path id="" clip-rule="evenodd" d="M0 0L594.24 0L594.24 0L594.24 841.6599L594.24 841.6599L0 841.6599L0 841.6599L0 0z" /></clipPath><clipPath id="323"><path id="" clip-rule="evenodd" d="M51.32072 21.6087L132.3535 21.6087L132.3535 21.6087L132.3535 102.6415L132.3535 102.6415L51.32072 102.6415L51.32072 102.6415L51.32072 21.6087z" /></clipPath><clipPath id="324"><path id="" clip-rule="evenodd" d="M0 0L594.24 0L594.24 0L594.24 841.6599L594.24 841.6599L0 841.6599L0 841.6599L0 0z" /></clipPath><clipPath id="325"><path id="" clip-rule="evenodd" d="M51.32072 21.6087L132.3535 21.6087L132.3535 21.6087L132.3535 102.6415L132.3535 102.6415L51.32072 102.6415L51.32072 102.6415L51.32072 21.6087z" /></clipPath><clipPath id="326"><path id="" clip-rule="evenodd" d="M91.83709 21.6087C 114.2021 21.6087 132.3535 39.76007 132.3535 62.12512C 132.3535 84.49011 114.2021 102.6415 91.83709 102.6415C 69.47206 102.6415 51.32072 84.49011 51.32072 62.12512C 51.32072 39.76007 69.47206 21.6087 91.83709 21.6087z" /></clipPath><clipPath id="327"><path id="" clip-rule="evenodd" d="M0 0L594.24 0L594.24 0L594.24 841.6599L594.24 841.6599L0 841.6599L0 841.6599L0 0z" /></clipPath><clipPath id="328"><path id="" clip-rule="evenodd" d="M0 0L594.24 0L594.24 0L594.24 841.6599L594.24 841.6599L0 841.6599L0 841.6599L0 0z" /></clipPath><clipPath id="329"><path id="" clip-rule="evenodd" d="M51.32072 21.6087L132.3535 21.6087L132.3535 21.6087L132.3535 102.6415L132.3535 102.6415L51.32072 102.6415L51.32072 102.6415L51.32072 21.6087z" /></clipPath><clipPath id="330"><path id="" clip-rule="evenodd" d="M0 0L594.24 0L594.24 0L594.24 841.6599L594.24 841.6599L0 841.6599L0 841.6599L0 0z" /></clipPath></defs><g transform="matrix(1.333333 0 0 1.333333 0 0)"><g clip-path="url(#1)"><g clip-path="url(#2)"><path id="1" transform="matrix(1 0 0 -1 0 842)" d="M0 842L594.2399 842L594.2399 0.3400879L0 0.3400879z" stroke="none" fill="#FFFFFF" fill-rule="nonzero" /><path id="2" transform="matrix(1 0 0 -1 0 842)" d="M0 842L594.2399 842L594.2399 0.3400879L0 0.3400879z" stroke="none" fill="#31D6F4" fill-rule="nonzero" /><path id="3" transform="matrix(1 0 0 -1 0 842)" d="M0 842L594.2399 842L594.2399 -839.1589L0 -839.1589z" stroke="none" fill="#31D6F4" fill-rule="nonzero" /><path id="4" transform="matrix(1 0 0 -1 0 842)" d="M0 842L594.2399 842L594.2399 -839.1589L0 -839.1589z" stroke="none" fill="#FFFFFF" fill-rule="nonzero" /><path id="5" transform="matrix(1 0 0 -1 0 842)" d="M0 842L194.4785 842L194.4785 -146.059L0 -146.059z" stroke="none" fill="#00B0F0" fill-rule="nonzero" /><path id="15" transform="matrix(1 0 0 -1 0 842)" d="M42.67724 634.016L43.21745 634.016C 46.79586 634.016 49.70007 631.1118 49.70007 627.5334L49.70007 627.5334L49.70007 626.9932C 49.70007 623.4148 46.79586 620.5106 43.21745 620.5106L43.21745 620.5106L42.67724 620.5106C 39.09883 620.5106 36.19462 623.4148 36.19462 626.9932L36.19462 626.9932L36.19462 627.5334C 36.19462 631.1118 39.09883 634.016 42.67724 634.016z" stroke="none" fill="#FFFFFF" fill-rule="evenodd" /><path id="20" transform="matrix(1 0 0 -1 0 842)" d="M42.67724 610.2464L43.21745 610.2464C 46.79586 610.2464 49.70007 607.3422 49.70007 603.7638L49.70007 603.7638L49.70007 603.2236C 49.70007 599.6451 46.79586 596.741 43.21745 596.741L43.21745 596.741L42.67724 596.741C 39.09883 596.741 36.19462 599.6451 36.19462 603.2236L36.19462 603.2236L36.19462 603.7638C 36.19462 607.3422 39.09883 610.2464 42.67724 610.2464z" stroke="none" fill="#FFFFFF" fill-rule="evenodd" /><path id="24" transform="matrix(1 0 0 -1 0 842)" d="M42.67724 586.4768L43.21745 586.4768C 46.79586 586.4768 49.70007 583.5726 49.70007 579.9941L49.70007 579.9941L49.70007 579.454C 49.70007 575.8756 46.79586 572.9713 43.21745 572.9713L43.21745 572.9713L42.67724 572.9713C 39.09883 572.9713 36.19462 575.8756 36.19462 579.454L36.19462 579.454L36.19462 579.9941C 36.19462 583.5726 39.09883 586.4768 42.67724 586.4768z" stroke="none" fill="#FFFFFF" fill-rule="evenodd" /><path id="30" transform="matrix(1 0 0 -1 0 842)" d="M42.67724 562.7072L43.21745 562.7072C 46.79586 562.7072 49.70007 559.803 49.70007 556.2246L49.70007 556.2246L49.70007 555.6843C 49.70007 552.106 46.79586 549.2018 43.21745 549.2018L43.21745 549.2018L42.67724 549.2018C 39.09883 549.2018 36.19462 552.106 36.19462 555.6843L36.19462 555.6843L36.19462 556.2246C 36.19462 559.803 39.09883 562.7072 42.67724 562.7072z" stroke="none" fill="#FFFFFF" fill-rule="evenodd" /><path id="38" transform="matrix(1 0 0 -1 0 842)" d="M42.67724 538.9376L43.21745 538.9376C 46.79586 538.9376 49.70007 536.0334 49.70007 532.455L49.70007 532.455L49.70007 531.9148C 49.70007 528.3364 46.79586 525.4321 43.21745 525.4321L43.21745 525.4321L42.67724 525.4321C 39.09883 525.4321 36.19462 528.3364 36.19462 531.9148L36.19462 531.9148L36.19462 532.455C 36.19462 536.0334 39.09883 538.9376 42.67724 538.9376z" stroke="none" fill="#FFFFFF" fill-rule="evenodd" /><path id="51" transform="matrix(1 0 0 -1 0 842)" d="M42.67724 515.168L43.21745 515.168C 46.79586 515.168 49.70007 512.2638 49.70007 508.6854L49.70007 508.6854L49.70007 508.1452C 49.70007 504.5667 46.79586 501.6625 43.21745 501.6625L43.21745 501.6625L42.67724 501.6625C 39.09883 501.6625 36.19462 504.5667 36.19462 508.1452L36.19462 508.1452L36.19462 508.6854C 36.19462 512.2638 39.09883 515.168 42.67724 515.168z" stroke="none" fill="#FFFFFF" fill-rule="evenodd" /></g><g clip-path="url(#3)"><g clip-path="url(#4)"></g></g><g clip-path="url(#5)"></g><g clip-path="url(#6)"><g clip-path="url(#7)"></g></g><g clip-path="url(#8)"></g><g clip-path="url(#9)"><g clip-path="url(#10)"></g></g><g clip-path="url(#11)"></g><g clip-path="url(#12)"><g clip-path="url(#13)"></g></g><g clip-path="url(#14)"><path id="75" transform="matrix(1 0 0 -1 0 842)" d="M36.73483 455.744L162.0654 455.744L162.0654 444.9396L36.73483 444.9396z" stroke="none" fill="#6FA8DC" fill-rule="nonzero" /><path id="115" transform="matrix(1 0 0 -1 0 842)" d="M36.19461 426.032L129.6523 426.032L129.6523 421.7103L36.19461 421.7103z" stroke="none" fill="#FFFFFF" fill-rule="nonzero" /><path id="116" transform="matrix(1 0 0 -1 0 842)" d="M36.19461 394.1591L128.5719 394.1591L128.5719 389.8374L36.19461 389.8374z" stroke="none" fill="#FFFFFF" fill-rule="nonzero" /><path id="117" transform="matrix(1 0 0 -1 0 842)" d="M36.19461 362.2863L116.6871 362.2863L116.6871 357.9645L36.19461 357.9645z" stroke="none" fill="#FFFFFF" fill-rule="nonzero" /><path id="118" transform="matrix(1 0 0 -1 0 842)" d="M36.19461 330.4134L117.2273 330.4134L117.2273 326.0916L36.19461 326.0916z" stroke="none" fill="#FFFFFF" fill-rule="nonzero" /><path id="119" transform="matrix(1 0 0 -1 0 842)" d="M36.19461 298.5405L68.6077 298.5405L68.6077 294.2188L36.19461 294.2188z" stroke="none" fill="#FFFFFF" fill-rule="nonzero" /></g><g clip-path="url(#15)"><g clip-path="url(#16)"></g></g><g clip-path="url(#17)"></g><g clip-path="url(#18)"><g clip-path="url(#19)"></g></g><g clip-path="url(#20)"></g><g clip-path="url(#21)"><g clip-path="url(#22)"></g></g><g clip-path="url(#23)"></g><g clip-path="url(#24)"><g clip-path="url(#25)"></g></g><g clip-path="url(#26)"><path id="138" transform="matrix(1 0 0 -1 0 842)" d="M229.0525 813.9086L229.5927 813.9086C 236.1531 813.9086 241.4775 808.5843 241.4775 802.0239L241.4775 802.0239L241.4775 801.4836C 241.4775 794.9232 236.1531 789.5988 229.5927 789.5988L229.5927 789.5988L229.0525 789.5988C 222.4921 789.5988 217.1677 794.9232 217.1677 801.4836L217.1677 801.4836L217.1677 802.0239C 217.1677 808.5843 222.4921 813.9086 229.0525 813.9086z" stroke="none" fill="#00B0F0" fill-rule="evenodd" /></g><g clip-path="url(#27)"><g clip-path="url(#28)"></g></g><g clip-path="url(#29)"></g><g clip-path="url(#30)"><g clip-path="url(#31)"></g></g><g clip-path="url(#32)"></g><g clip-path="url(#33)"><g clip-path="url(#34)"></g></g><g clip-path="url(#35)"></g><g clip-path="url(#36)"><g clip-path="url(#37)"></g></g><g clip-path="url(#38)"><path id="206" transform="matrix(1 0 0 -1 0 842)" d="M229.0525 724.7726L229.5927 724.7726C 236.1531 724.7726 241.4775 719.4482 241.4775 712.8878L241.4775 712.8878L241.4775 712.3477C 241.4775 705.7872 236.1531 700.4628 229.5927 700.4628L229.5927 700.4628L229.0525 700.4628C 222.4921 700.4628 217.1677 705.7872 217.1677 712.3477L217.1677 712.3477L217.1677 712.8878C 217.1677 719.4482 222.4921 724.7726 229.0525 724.7726z" stroke="none" fill="#00B0F0" fill-rule="evenodd" /></g><g clip-path="url(#39)"><g clip-path="url(#40)"></g></g><g clip-path="url(#41)"></g><g clip-path="url(#42)"><g clip-path="url(#43)"></g></g><g clip-path="url(#44)"></g><g clip-path="url(#45)"><g clip-path="url(#46)"></g></g><g clip-path="url(#47)"></g><g clip-path="url(#48)"><g clip-path="url(#49)"></g></g><g clip-path="url(#50)"></g><g clip-path="url(#51)"><g clip-path="url(#52)"></g></g><g clip-path="url(#53)"></g><g clip-path="url(#54)"><g clip-path="url(#55)"></g></g><g clip-path="url(#56)"></g><g clip-path="url(#57)"><g clip-path="url(#58)"></g></g><g clip-path="url(#59)"></g><g clip-path="url(#60)"><g clip-path="url(#61)"></g></g><g clip-path="url(#62)"></g><g clip-path="url(#63)"><g clip-path="url(#64)"></g></g><g clip-path="url(#65)"></g><g clip-path="url(#66)"><g clip-path="url(#67)"></g></g><g clip-path="url(#68)"></g><g clip-path="url(#69)"><g clip-path="url(#70)"></g></g><g clip-path="url(#71)"></g><g clip-path="url(#72)"><g clip-path="url(#73)"></g></g><g clip-path="url(#74)"></g><g clip-path="url(#75)"><g clip-path="url(#76)"></g></g><g clip-path="url(#77)"></g><g clip-path="url(#78)"><g clip-path="url(#79)"></g></g><g clip-path="url(#80)"></g><g clip-path="url(#81)"><g clip-path="url(#82)"></g></g><g clip-path="url(#83)"></g><g clip-path="url(#84)"><g clip-path="url(#85)"></g></g><g clip-path="url(#86)"><path id="247" transform="matrix(1 0 0 -1 0 842)" d="M249.5808 677.7737C 249.5808 676.8786 248.8552 676.153 247.9601 676.153C 247.065 676.153 246.3395 676.8786 246.3395 677.7737C 246.3395 678.6688 247.065 679.3943 247.9601 679.3943C 248.8552 679.3943 249.5808 678.6688 249.5808 677.7737z" stroke="#333333" stroke-width="0.5402181" fill="#333333" fill-rule="evenodd" /><path id="271" transform="matrix(1 0 0 -1 0 842)" d="M249.5808 665.8889C 249.5808 664.9938 248.8552 664.2682 247.9601 664.2682C 247.065 664.2682 246.3395 664.9938 246.3395 665.8889C 246.3395 666.7839 247.065 667.5095 247.9601 667.5095C 248.8552 667.5095 249.5808 666.7839 249.5808 665.8889z" stroke="#333333" stroke-width="0.5402181" fill="#333333" fill-rule="evenodd" /><path id="295" transform="matrix(1 0 0 -1 0 842)" d="M249.5808 654.0041C 249.5808 653.109 248.8552 652.3834 247.9601 652.3834C 247.065 652.3834 246.3395 653.109 246.3395 654.0041C 246.3395 654.8992 247.065 655.6248 247.9601 655.6248C 248.8552 655.6248 249.5808 654.8992 249.5808 654.0041z" stroke="#333333" stroke-width="0.5402181" fill="#333333" fill-rule="evenodd" /><path id="355" transform="matrix(1 0 0 -1 0 842)" d="M249.5808 630.2345C 249.5808 629.3394 248.8552 628.6138 247.9601 628.6138C 247.065 628.6138 246.3395 629.3394 246.3395 630.2345C 246.3395 631.1295 247.065 631.8551 247.9601 631.8551C 248.8552 631.8551 249.5808 631.1295 249.5808 630.2345z" stroke="#333333" stroke-width="0.5402181" fill="#333333" fill-rule="evenodd" /><path id="392" transform="matrix(1 0 0 -1 0 842)" d="M249.5808 618.3497C 249.5808 617.4546 248.8552 616.729 247.9601 616.729C 247.065 616.729 246.3395 617.4546 246.3395 618.3497C 246.3395 619.2448 247.065 619.9703 247.9601 619.9703C 248.8552 619.9703 249.5808 619.2448 249.5808 618.3497z" stroke="#333333" stroke-width="0.5402181" fill="#333333" fill-rule="evenodd" /></g><g clip-path="url(#87)"><g clip-path="url(#88)"></g></g><g clip-path="url(#89)"></g><g clip-path="url(#90)"><g clip-path="url(#91)"></g></g><g clip-path="url(#92)"></g><g clip-path="url(#93)"><g clip-path="url(#94)"></g></g><g clip-path="url(#95)"></g><g clip-path="url(#96)"><g clip-path="url(#97)"></g></g><g clip-path="url(#98)"></g><g clip-path="url(#99)"><g clip-path="url(#100)"></g></g><g clip-path="url(#101)"></g><g clip-path="url(#102)"><g clip-path="url(#103)"></g></g><g clip-path="url(#104)"></g><g clip-path="url(#105)"><g clip-path="url(#106)"></g></g><g clip-path="url(#107)"></g><g clip-path="url(#108)"><g clip-path="url(#109)"></g></g><g clip-path="url(#110)"></g><g clip-path="url(#111)"><g clip-path="url(#112)"></g></g><g clip-path="url(#113)"></g><g clip-path="url(#114)"><g clip-path="url(#115)"></g></g><g clip-path="url(#116)"></g><g clip-path="url(#117)"><g clip-path="url(#118)"></g></g><g clip-path="url(#119)"></g><g clip-path="url(#120)"><g clip-path="url(#121)"></g></g><g clip-path="url(#122)"><path id="457" transform="matrix(1 0 0 -1 0 842)" d="M249.5808 588.0975C 249.5808 587.2024 248.8552 586.4768 247.9601 586.4768C 247.065 586.4768 246.3395 587.2024 246.3395 588.0975C 246.3395 588.9926 247.065 589.7181 247.9601 589.7181C 248.8552 589.7181 249.5808 588.9926 249.5808 588.0975z" stroke="#333333" stroke-width="0.5402181" fill="#333333" fill-rule="evenodd" /><path id="477" transform="matrix(1 0 0 -1 0 842)" d="M249.5808 576.2126C 249.5808 575.3176 248.8552 574.592 247.9601 574.592C 247.065 574.592 246.3395 575.3176 246.3395 576.2126C 246.3395 577.1077 247.065 577.8333 247.9601 577.8333C 248.8552 577.8333 249.5808 577.1077 249.5808 576.2126z" stroke="#333333" stroke-width="0.5402181" fill="#333333" fill-rule="evenodd" /><path id="495" transform="matrix(1 0 0 -1 0 842)" d="M249.5808 564.3279C 249.5808 563.4328 248.8552 562.7072 247.9601 562.7072C 247.065 562.7072 246.3395 563.4328 246.3395 564.3279C 246.3395 565.2229 247.065 565.9485 247.9601 565.9485C 248.8552 565.9485 249.5808 565.2229 249.5808 564.3279z" stroke="#333333" stroke-width="0.5402181" fill="#333333" fill-rule="evenodd" /><path id="513" transform="matrix(1 0 0 -1 0 842)" d="M249.5808 552.4431C 249.5808 551.548 248.8552 550.8224 247.9601 550.8224C 247.065 550.8224 246.3395 551.548 246.3395 552.4431C 246.3395 553.3381 247.065 554.0637 247.9601 554.0637C 248.8552 554.0637 249.5808 553.3381 249.5808 552.4431z" stroke="#333333" stroke-width="0.5402181" fill="#333333" fill-rule="evenodd" /><path id="529" transform="matrix(1 0 0 -1 0 842)" d="M229.0525 525.4321L229.5927 525.4321C 236.1531 525.4321 241.4775 520.1077 241.4775 513.5474L241.4775 513.5474L241.4775 513.0071C 241.4775 506.4467 236.1531 501.1223 229.5927 501.1223L229.5927 501.1223L229.0525 501.1223C 222.4921 501.1223 217.1677 506.4467 217.1677 513.0071L217.1677 513.0071L217.1677 513.5474C 217.1677 520.1077 222.4921 525.4321 229.0525 525.4321z" stroke="none" fill="#00B0F0" fill-rule="evenodd" /></g><g clip-path="url(#123)"><g clip-path="url(#124)"></g></g><g clip-path="url(#125)"></g><g clip-path="url(#126)"><g clip-path="url(#127)"></g></g><g clip-path="url(#128)"></g><g clip-path="url(#129)"><g clip-path="url(#130)"></g></g><g clip-path="url(#131)"></g><g clip-path="url(#132)"><g clip-path="url(#133)"></g></g><g clip-path="url(#134)"></g><g clip-path="url(#135)"><g clip-path="url(#136)"></g></g><g clip-path="url(#137)"></g><g clip-path="url(#138)"><g clip-path="url(#139)"></g></g><g clip-path="url(#140)"></g><g clip-path="url(#141)"><g clip-path="url(#142)"></g></g><g clip-path="url(#143)"></g><g clip-path="url(#144)"><g clip-path="url(#145)"></g></g><g clip-path="url(#146)"></g><g clip-path="url(#147)"><g clip-path="url(#148)"></g></g><g clip-path="url(#149)"></g><g clip-path="url(#150)"><g clip-path="url(#151)"></g></g><g clip-path="url(#152)"></g><g clip-path="url(#153)"><g clip-path="url(#154)"></g></g><g clip-path="url(#155)"></g><g clip-path="url(#156)"><g clip-path="url(#157)"></g></g><g clip-path="url(#158)"></g><g clip-path="url(#159)"></g><g clip-path="url(#160)"></g><g clip-path="url(#161)"></g><g clip-path="url(#162)"></g><g clip-path="url(#163)"><g clip-path="url(#164)"></g></g><g clip-path="url(#165)"></g><g clip-path="url(#166)"><g clip-path="url(#167)"></g></g><g clip-path="url(#168)"></g><g clip-path="url(#169)"><g clip-path="url(#170)"></g></g><g clip-path="url(#171)"></g><g clip-path="url(#172)"><g clip-path="url(#173)"></g></g><g clip-path="url(#174)"></g><g clip-path="url(#175)"><g clip-path="url(#176)"></g></g><g clip-path="url(#177)"></g><g clip-path="url(#178)"><g clip-path="url(#179)"></g></g><g clip-path="url(#180)"></g><g clip-path="url(#181)"><g clip-path="url(#182)"></g></g><g clip-path="url(#183)"></g><g clip-path="url(#184)"><g clip-path="url(#185)"></g></g><g clip-path="url(#186)"></g><g clip-path="url(#187)"></g><g clip-path="url(#188)"></g><g clip-path="url(#189)"></g><g clip-path="url(#190)"></g><g clip-path="url(#191)"><g clip-path="url(#192)"></g></g><g clip-path="url(#193)"></g><g clip-path="url(#194)"><g clip-path="url(#195)"></g></g><g clip-path="url(#196)"></g><g clip-path="url(#197)"><g clip-path="url(#198)"></g></g><g clip-path="url(#199)"></g><g clip-path="url(#200)"><g clip-path="url(#201)"></g></g><g clip-path="url(#202)"></g><g clip-path="url(#203)"><g clip-path="url(#204)"></g></g><g clip-path="url(#205)"></g><g clip-path="url(#206)"><g clip-path="url(#207)"></g></g><g clip-path="url(#208)"></g><g clip-path="url(#209)"><g clip-path="url(#210)"></g></g><g clip-path="url(#211)"></g><g clip-path="url(#212)"><g clip-path="url(#213)"></g></g><g clip-path="url(#214)"></g><g clip-path="url(#215)"></g><g clip-path="url(#216)"></g><g clip-path="url(#217)"></g><g clip-path="url(#218)"><path id="880" transform="matrix(1 0 0 -1 0 842)" d="M281.9939 331.2237L363.0266 331.2237" stroke="#333333" stroke-width="0.5402181" stroke-linecap="square" fill="none" /></g><g clip-path="url(#219)"><g clip-path="url(#220)"></g></g><g clip-path="url(#221)"></g><g clip-path="url(#222)"><g clip-path="url(#223)"></g></g><g clip-path="url(#224)"></g><g clip-path="url(#225)"><g clip-path="url(#226)"></g></g><g clip-path="url(#227)"></g><g clip-path="url(#228)"><g clip-path="url(#229)"></g></g><g clip-path="url(#230)"></g><g clip-path="url(#231)"><g clip-path="url(#232)"></g></g><g clip-path="url(#233)"></g><g clip-path="url(#234)"><g clip-path="url(#235)"></g></g><g clip-path="url(#236)"></g><g clip-path="url(#237)"><g clip-path="url(#238)"></g></g><g clip-path="url(#239)"></g><g clip-path="url(#240)"><g clip-path="url(#241)"></g></g><g clip-path="url(#242)"></g><g clip-path="url(#243)"></g><g clip-path="url(#244)"></g><g clip-path="url(#245)"></g><g clip-path="url(#246)"><path id="1068" transform="matrix(1 0 0 -1 0 842)" d="M229.0525 229.9328L229.5927 229.9328C 236.1531 229.9328 241.4775 224.6085 241.4775 218.048L241.4775 218.048L241.4775 217.5078C 241.4775 210.9474 236.1531 205.623 229.5927 205.623L229.5927 205.623L229.0525 205.623C 222.4921 205.623 217.1677 210.9474 217.1677 217.5078L217.1677 217.5078L217.1677 218.048C 217.1677 224.6085 222.4921 229.9328 229.0525 229.9328z" stroke="none" fill="#00B0F0" fill-rule="evenodd" /></g><g clip-path="url(#247)"><g clip-path="url(#248)"></g></g><g clip-path="url(#249)"></g><g clip-path="url(#250)"><g clip-path="url(#251)"></g></g><g clip-path="url(#252)"></g><g clip-path="url(#253)"><g clip-path="url(#254)"></g></g><g clip-path="url(#255)"></g><g clip-path="url(#256)"><g clip-path="url(#257)"></g></g><g clip-path="url(#258)"><path id="1098" transform="matrix(1 0 0 -1 0 842)" d="M229.0525 172.1295L229.5927 172.1295C 236.1531 172.1295 241.4775 166.8051 241.4775 160.2447L241.4775 160.2447L241.4775 159.7045C 241.4775 153.144 236.1531 147.8196 229.5927 147.8196L229.5927 147.8196L229.0525 147.8196C 222.4921 147.8196 217.1677 153.144 217.1677 159.7045L217.1677 159.7045L217.1677 160.2447C 217.1677 166.8051 222.4921 172.1295 229.0525 172.1295z" stroke="none" fill="#00B0F0" fill-rule="evenodd" /></g><g clip-path="url(#259)"><g clip-path="url(#260)"></g></g><g clip-path="url(#261)"></g><g clip-path="url(#262)"><g clip-path="url(#263)"></g></g><g clip-path="url(#264)"></g><g clip-path="url(#265)"><g clip-path="url(#266)"></g></g><g clip-path="url(#267)"></g><g clip-path="url(#268)"><g clip-path="url(#269)"></g></g><g clip-path="url(#270)"></g><g clip-path="url(#271)"><g clip-path="url(#272)"></g></g><g clip-path="url(#273)"></g><g clip-path="url(#274)"><g clip-path="url(#275)"></g></g><g clip-path="url(#276)"></g><g clip-path="url(#277)"><g clip-path="url(#278)"></g></g><g clip-path="url(#279)"></g><g clip-path="url(#280)"><g clip-path="url(#281)"></g></g><g clip-path="url(#282)"></g><g clip-path="url(#283)"><g clip-path="url(#284)"></g></g><g clip-path="url(#285)"></g><g clip-path="url(#286)"><g clip-path="url(#287)"></g></g><g clip-path="url(#288)"></g><g clip-path="url(#289)"><g clip-path="url(#290)"></g></g><g clip-path="url(#291)"></g><g clip-path="url(#292)"><g clip-path="url(#293)"></g></g><g clip-path="url(#294)"></g><g clip-path="url(#295)"><g clip-path="url(#296)"></g></g><g clip-path="url(#297)"></g><g clip-path="url(#298)"><g clip-path="url(#299)"></g></g><g clip-path="url(#300)"></g><g clip-path="url(#301)"><g clip-path="url(#302)"></g></g><g clip-path="url(#303)"></g><g clip-path="url(#304)"><g clip-path="url(#305)"></g></g><g clip-path="url(#306)"><path id="1196" transform="matrix(1 0 0 -1 0 842)" d="M229.0525 87.31519L229.5927 87.31519C 236.1531 87.31519 241.4775 81.99084 241.4775 75.43042L241.4775 75.43042L241.4775 74.8902C 241.4775 68.32977 236.1531 63.00543 229.5927 63.00543L229.5927 63.00543L229.0525 63.00543C 222.4921 63.00543 217.1677 68.32977 217.1677 74.8902L217.1677 74.8902L217.1677 75.43042C 217.1677 81.99084 222.4921 87.31519 229.0525 87.31519z" stroke="none" fill="#00B0F0" fill-rule="evenodd" /></g><g clip-path="url(#307)"><g clip-path="url(#308)"></g></g><g clip-path="url(#309)"></g><g clip-path="url(#310)"><g clip-path="url(#311)"></g></g><g clip-path="url(#312)"></g><g clip-path="url(#313)"><g clip-path="url(#314)"></g></g><g clip-path="url(#315)"></g><g clip-path="url(#316)"><g clip-path="url(#317)"></g></g><g clip-path="url(#318)"></g><g clip-path="url(#319)"><g clip-path="url(#320)"><path id="1256" transform="matrix(1 0 0 -1 0 842)" d="M91.83709 820.3913C 114.2021 820.3913 132.3535 802.2399 132.3535 779.8749C 132.3535 757.5099 114.2021 739.3585 91.83709 739.3585C 69.47206 739.3585 51.32072 757.5099 51.32072 779.8749C 51.32072 802.2399 69.47206 820.3913 91.83709 820.3913zM91.83709 823.0923C 115.6931 823.0923 135.0546 803.731 135.0546 779.8749C 135.0546 756.0189 115.6931 736.6575 91.83709 736.6575C 67.98106 736.6575 48.61964 756.0189 48.61964 779.8749C 48.61964 803.731 67.98106 823.0923 91.83709 823.0923z" stroke="none" fill="#FFFFFF" fill-rule="evenodd" /></g></g><g clip-path="url(#321)"></g><g clip-path="url(#322)"><g clip-path="url(#323)"></g></g><g clip-path="url(#324)"><g clip-path="url(#325)"><g clip-path="url(#326)"><g transform="matrix(0.2701091 0 0 0.2701091 51.32072 21.60883)"><g transform="matrix(1 0 0 1 0 0)"><image x="0" y="0" xlink:href="img_01.png" width="300" height="300" /></g></g></g></g></g><g clip-path="url(#327)"></g><g clip-path="url(#328)"><g clip-path="url(#329)"></g></g><g clip-path="url(#330)"></g></g></g></svg>